<?xml version="1.0" standalone="no"?>
<!DOCTYPE svg PUBLIC "-//W3C//DTD SVG 20010904//EN"
 "http://www.w3.org/TR/2001/REC-SVG-20010904/DTD/svg10.dtd">
<svg version="1.0" xmlns="http://www.w3.org/2000/svg"
 width="397.000000pt" height="397.000000pt" viewBox="0 0 397.000000 397.000000"
 preserveAspectRatio="xMidYMid meet">

<g transform="translate(0.000000,397.000000) scale(0.100000,-0.100000)"
fill="#000000" stroke="none">
<path d="M1963 3913 c26 -2 67 -2 90 0 23 2 2 3 -48 3 -49 0 -68 -1 -42 -3z"/>
<path d="M1910 3888 c0 -5 -4 -7 -10 -3 -5 3 -4 -8 2 -27 15 -44 22 -50 14
-13 l-7 31 81 -4 c54 -2 80 1 80 8 0 6 5 8 10 5 6 -3 10 -1 10 5 0 7 -30 10
-90 9 -49 -1 -90 -6 -90 -11z"/>
<path d="M2090 3859 c-13 -31 -14 -31 -68 -26 -65 7 -102 -5 -102 -33 0 -11
-5 -20 -11 -20 -5 0 -8 4 -5 8 6 10 -12 79 -22 86 -4 2 -7 -17 -8 -42 0 -26 1
-41 3 -34 8 22 18 13 19 -18 1 -32 -12 -41 -18 -12 -3 12 -6 9 -10 -10 -3 -15
-1 -25 3 -22 5 3 9 -16 9 -43 0 -31 -3 -43 -9 -34 -6 8 -7 -3 -4 -30 4 -36 1
-48 -16 -63 -12 -11 -24 -16 -28 -13 -3 4 -1 7 6 7 7 0 9 5 5 12 -4 6 -3 8 3
5 6 -4 13 4 15 18 6 31 4 31 -22 3 -12 -13 -25 -24 -31 -24 -5 -1 -17 -2 -26
-3 -13 -1 -15 -3 -5 -9 21 -14 -35 -34 -58 -22 -23 12 -30 13 -30 1 0 -13 52
-21 71 -10 10 5 33 3 60 -6 l44 -14 -50 1 c-27 0 -60 -3 -72 -7 -15 -5 -23 -3
-23 4 0 6 -8 11 -17 11 -15 0 -16 -2 -3 -10 17 -11 16 -11 -79 -35 -47 -12
-67 -13 -75 -5 -8 8 -7 9 6 5 9 -4 25 -1 35 5 16 10 15 11 -7 6 l-25 -5 22 19
c20 15 21 19 6 24 -14 6 -14 8 2 26 10 11 14 20 9 20 -5 0 -2 5 6 10 10 6 11
10 3 10 -7 0 -13 5 -13 11 0 5 6 7 13 3 6 -4 1 4 -11 18 -19 21 -22 30 -13 46
13 24 15 43 2 24 -6 -10 -11 -5 -21 17 -12 30 -24 36 -63 33 -17 -2 -17 -1 -2
15 13 12 19 13 25 4 4 -7 16 -11 26 -8 15 3 12 7 -13 17 -18 6 -33 16 -33 21
0 13 14 11 28 -3 9 -9 12 -9 12 0 0 7 -5 12 -11 12 -5 0 -8 4 -5 9 21 33 -88
44 -159 16 -22 -8 -29 -13 -17 -11 34 6 58 -4 40 -16 -10 -7 -10 -11 0 -15 17
-7 15 -23 -3 -23 -8 0 -15 -4 -15 -10 0 -5 5 -10 10 -10 6 0 10 -20 10 -45 0
-25 -4 -45 -10 -45 -5 0 -10 -11 -10 -25 0 -17 6 -25 17 -25 9 0 13 -3 10 -7
-4 -3 -2 -12 4 -20 9 -10 7 -13 -9 -13 -15 0 -22 9 -28 38 -11 56 -13 92 -3
92 5 0 8 11 7 25 -1 14 -6 25 -11 25 -4 0 -3 9 3 21 11 20 11 20 -21 3 -28
-14 -30 -18 -16 -26 9 -5 17 -17 16 -26 0 -14 -2 -13 -9 3 -8 19 -9 19 -9 -2
-1 -12 4 -25 9 -28 6 -3 10 -19 10 -35 0 -42 29 -110 47 -110 8 0 13 -5 11
-12 -7 -21 -24 -19 -37 4 -8 16 -10 17 -5 3 4 -11 8 -35 9 -52 2 -39 11 -51
27 -35 7 7 30 11 53 11 22 -1 32 -3 23 -6 -10 -2 -18 -9 -18 -15 0 -7 -5 -7
-14 1 -17 15 -77 -14 -70 -34 4 -8 -5 -15 -25 -20 -17 -4 -31 -10 -31 -13 0
-4 -10 -12 -23 -18 -12 -6 -42 -22 -67 -35 -44 -22 -100 -32 -100 -16 0 4 15
7 34 7 34 0 56 14 75 48 5 9 13 13 17 9 4 -4 -1 -14 -12 -22 -10 -8 -16 -15
-13 -15 3 0 20 11 38 24 21 16 28 26 19 29 -8 3 -6 6 6 6 15 1 16 4 6 16 -7 8
-20 15 -29 16 -12 0 -11 2 4 9 13 6 15 9 5 9 -8 0 -22 -4 -30 -9 -12 -8 -12
-10 -1 -10 8 0 12 -3 8 -6 -3 -3 -31 -7 -61 -9 -49 -2 -57 1 -71 21 -20 31
-19 40 3 23 15 -13 16 -12 3 3 -7 10 -18 15 -24 11 -7 -4 -8 0 -4 11 6 15 3
17 -17 12 -14 -3 -28 -1 -32 6 -4 6 -3 8 4 4 23 -14 21 14 -2 41 -24 28 -25
28 -40 8 -14 -19 -15 -18 -11 13 2 19 0 30 -6 26 -5 -3 -6 -10 -3 -16 5 -7 2
-8 -5 -4 -7 5 -10 14 -7 22 3 8 1 14 -4 14 -6 0 -10 -6 -10 -14 0 -21 -15 -28
-44 -20 -22 5 -23 8 -11 20 16 17 26 18 22 3 -1 -6 3 -13 10 -16 7 -2 10 3 8
14 -2 10 -4 21 -4 26 -2 16 -22 5 -57 -30 -20 -21 -41 -37 -46 -35 -5 1 -7 -2
-3 -8 6 -10 -7 -14 -32 -11 -8 1 -10 -5 -6 -15 5 -13 3 -15 -7 -9 -9 5 -11 4
-6 -4 4 -6 12 -9 17 -6 5 4 9 0 9 -7 0 -8 3 -9 8 -3 4 6 13 11 20 13 10 2 10
-2 1 -20 -17 -33 -18 -33 -35 -12 -15 19 -16 19 -9 -1 4 -11 10 -28 12 -37 3
-10 10 -18 15 -18 6 0 7 8 3 18 -5 13 -4 14 6 5 10 -10 9 -16 -2 -29 -13 -16
-12 -16 8 -6 17 9 22 9 27 -4 9 -23 7 -31 -4 -14 -5 8 -12 11 -17 7 -10 -10
18 -28 31 -20 5 4 7 -1 3 -11 -4 -10 -7 -20 -7 -24 0 -3 -7 3 -16 14 -8 10 -3
-3 12 -31 34 -61 33 -60 40 -52 4 4 1 13 -5 21 -7 8 -10 20 -6 26 3 5 3 15 -1
22 -11 18 -15 148 -5 148 14 0 34 -64 21 -68 -8 -3 -7 -8 1 -18 6 -7 9 -24 6
-36 -2 -13 -1 -34 3 -48 5 -16 8 -19 9 -7 1 21 21 23 21 2 0 -9 -7 -18 -15
-21 -15 -6 -21 -35 -9 -47 3 -3 13 -3 21 0 11 4 12 8 2 13 -9 6 -8 12 4 25 16
15 17 14 15 -11 -2 -14 -8 -29 -15 -31 -7 -3 -13 -9 -13 -14 0 -6 9 -5 20 1
11 6 20 7 20 3 0 -4 5 -1 10 7 5 8 10 11 10 5 -1 -5 -7 -19 -15 -29 -8 -11
-15 -14 -15 -8 0 7 -5 12 -11 12 -5 0 -7 -4 -4 -10 3 -5 1 -10 -4 -10 -6 0
-11 4 -11 9 0 5 -14 3 -31 -6 -28 -14 -29 -16 -14 -33 11 -12 13 -20 6 -25 -6
-3 -11 1 -11 9 0 10 -6 13 -17 9 -12 -5 -14 -3 -8 7 5 8 4 11 -3 6 -6 -4 -9
-13 -6 -21 6 -14 -29 -39 -40 -28 -3 3 -6 2 -6 -4 0 -5 10 -15 23 -21 12 -6
16 -11 10 -11 -7 -1 -13 -6 -13 -12 0 -8 6 -7 17 2 14 12 16 12 11 -1 -3 -8
-13 -14 -22 -14 -17 2 -22 -11 -8 -20 5 -3 22 8 38 25 16 17 22 28 13 24 -19
-7 -46 20 -29 30 5 3 10 1 10 -4 0 -16 26 -13 40 3 6 8 17 13 24 10 6 -2 23 7
36 21 13 14 19 25 13 25 -6 0 -16 -7 -23 -15 -10 -13 -14 -13 -27 0 -8 8 -11
19 -8 25 10 16 25 12 19 -5 -4 -8 -1 -15 6 -15 6 0 9 4 6 9 -3 5 5 11 19 13
14 3 25 1 25 -5 0 -5 7 -4 15 3 10 9 15 9 15 1 0 -6 -5 -11 -10 -11 -19 0
-170 -153 -168 -169 2 -10 -3 -15 -14 -13 -20 3 -101 -105 -93 -126 2 -7 1
-11 -4 -7 -5 3 -19 -7 -30 -22 -11 -16 -25 -33 -29 -38 -5 -6 -11 -17 -14 -25
-6 -18 -35 -21 -42 -4 -6 16 5 19 20 4 11 -11 14 -1 15 48 1 16 6 22 18 20 9
-2 26 7 38 21 23 24 31 47 14 37 -5 -4 -12 0 -15 6 -3 7 -3 3 0 -9 3 -13 1
-23 -5 -23 -17 0 -13 36 6 51 9 8 14 9 10 3 -4 -7 -1 -14 7 -17 8 -3 13 1 12
11 0 9 5 16 12 15 15 -4 15 6 -3 37 -21 37 -19 40 34 35 40 -3 49 -1 45 10 -3
8 -26 17 -50 21 -35 5 -42 9 -34 19 7 9 23 12 44 8 24 -4 35 -1 39 10 7 19
-23 31 -52 22 -10 -3 -29 -1 -42 5 -22 10 -22 10 6 5 23 -5 27 -4 18 6 -7 7
-24 9 -47 5 -30 -6 -36 -11 -36 -32 0 -34 -24 -26 -28 9 -3 20 1 27 14 27 16
0 15 2 -4 20 -12 11 -25 20 -31 20 -5 0 -11 7 -15 15 -6 18 -1 19 25 5 37 -20
18 -2 -31 30 -27 17 -54 29 -60 25 -5 -3 -10 -2 -10 3 0 5 -7 9 -15 9 -12 0
-12 -3 -2 -16 10 -12 9 -14 -4 -9 -11 4 -25 -3 -40 -18 -12 -13 -17 -24 -10
-24 7 0 10 -4 6 -10 -3 -5 -12 -7 -19 -4 -8 3 -17 1 -21 -5 -4 -7 1 -8 12 -4
15 5 16 4 5 -8 -7 -8 -18 -14 -25 -14 -7 0 -11 -12 -10 -28 1 -15 -2 -25 -8
-22 -15 10 -10 -11 6 -25 8 -7 15 -9 15 -5 0 4 7 2 15 -5 9 -7 14 -19 11 -26
-3 -7 0 -16 6 -20 7 -4 8 -3 4 4 -4 7 -2 12 3 12 6 0 11 -9 11 -21 0 -19 1
-19 16 -4 13 12 19 13 30 4 8 -6 13 -17 12 -23 -3 -14 24 -56 36 -56 4 0 1 10
-7 23 -10 15 -12 29 -6 38 5 8 9 9 9 3 0 -17 70 9 82 30 5 9 22 16 38 16 31 0
43 -20 13 -20 -27 -1 -77 -46 -70 -63 5 -13 -20 -35 -28 -25 -1 2 -8 12 -14
23 -12 19 -12 19 -8 -2 3 -13 1 -25 -4 -28 -4 -3 6 -18 23 -34 28 -25 30 -29
18 -52 -7 -13 -26 -36 -42 -52 -15 -15 -29 -33 -31 -40 -1 -6 -6 -16 -12 -20
-6 -5 -3 -7 8 -3 31 10 18 -3 -19 -19 -32 -13 -78 -14 -91 -2 -2 3 9 8 24 12
27 7 28 7 5 16 -25 9 -55 2 -46 -12 3 -5 -2 -9 -10 -9 -9 0 -16 -4 -16 -10 0
-5 -9 -10 -21 -10 -11 0 -18 4 -15 8 3 5 -1 9 -9 9 -8 0 -12 -4 -9 -9 3 -4 -3
-8 -12 -8 -10 0 -26 -7 -36 -17 -14 -13 -18 -13 -18 -2 0 11 -2 11 -8 1 -5 -7
-23 -14 -42 -17 -18 -2 -37 -10 -41 -17 -11 -17 -11 -45 0 -52 5 -4 7 3 4 14
-7 25 22 27 52 4 17 -13 18 -16 5 -24 -8 -6 -21 -8 -28 -5 -7 3 -10 0 -6 -6 3
-6 14 -9 24 -6 12 3 22 -4 29 -21 9 -19 15 -22 23 -14 7 7 17 12 22 12 6 0 4
-5 -4 -10 -10 -7 -11 -10 -2 -10 22 0 27 32 7 46 -10 8 -15 17 -12 21 8 7 47
-31 47 -45 0 -5 -7 -15 -15 -22 -8 -7 -15 -16 -15 -20 0 -13 44 -20 51 -9 3 6
9 0 12 -13 6 -21 11 -24 36 -20 18 2 33 12 36 23 8 24 32 14 39 -17 4 -13 12
-23 19 -21 14 2 11 -56 -3 -61 -4 -2 -6 -13 -3 -25 4 -16 2 -19 -5 -8 -9 12
-11 12 -15 0 -2 -8 -2 -5 0 6 12 54 10 60 -27 58 -28 -2 -31 0 -15 7 19 8 19
9 -2 9 -28 1 -30 -19 -4 -26 11 -3 22 -12 25 -20 4 -9 2 -11 -6 -7 -7 5 -9 0
-6 -14 4 -12 3 -24 -2 -27 -10 -6 -22 23 -15 35 3 5 0 12 -6 16 -7 4 -9 3 -5
-4 3 -6 2 -13 -4 -17 -5 -3 -10 -11 -10 -16 0 -6 5 -7 10 -4 6 3 10 -3 10 -14
0 -23 -17 -37 -23 -19 -2 7 -3 6 -2 -3 1 -9 -8 -29 -21 -44 -19 -22 -34 -28
-86 -32 -35 -3 -66 -11 -70 -17 -5 -8 -13 -7 -28 1 -24 15 -64 17 -55 3 8 -12
-1 -13 -23 -1 -15 8 -17 3 -14 -50 2 -32 7 -57 12 -54 10 6 20 -19 20 -51 0
-25 15 -33 23 -11 4 9 6 9 6 0 2 -20 -21 -27 -34 -10 -7 9 -15 14 -18 10 -4
-3 -7 2 -7 13 0 15 -2 16 -9 5 -7 -11 -10 -10 -14 5 -4 17 -5 17 -6 -2 -1 -28
61 -59 90 -44 15 9 19 7 19 -7 0 -14 2 -15 9 -4 6 9 18 12 37 7 88 -20 84 -19
102 -17 20 2 13 31 -8 31 -11 0 -20 5 -20 10 0 6 9 10 20 10 18 0 20 7 20 73
1 74 20 117 52 117 10 0 9 -3 -2 -10 -12 -7 -12 -12 -2 -22 6 -6 12 -21 11
-32 -1 -18 -2 -17 -9 4 -8 24 -8 23 -9 -7 -1 -21 4 -33 12 -33 9 0 14 -14 15
-41 1 -22 9 -48 19 -57 15 -15 16 -13 9 38 -4 30 -10 66 -13 80 -3 14 -2 22 2
18 5 -4 11 -25 15 -45 7 -34 8 -32 9 22 0 45 -2 56 -10 45 -8 -11 -9 -8 -4 14
5 22 3 27 -8 23 -11 -4 -13 0 -10 16 4 18 3 19 -6 7 -8 -11 -11 -12 -11 -2 0
7 7 20 16 29 20 21 37 4 37 -37 0 -24 2 -28 9 -15 5 8 7 30 4 48 -5 29 -5 29
4 8 7 -17 6 -53 -5 -126 -16 -106 -13 -343 5 -389 11 -31 5 -105 -13 -149 -11
-26 -12 -37 -4 -40 7 -2 9 -8 5 -12 -12 -12 -28 5 -28 30 0 13 4 27 10 30 5 3
10 11 10 17 0 6 -6 5 -16 -2 -13 -12 -15 -7 -13 41 1 30 6 63 10 74 4 12 6 -5
4 -40 -4 -51 -3 -55 6 -27 5 17 14 32 19 32 6 0 10 8 10 17 0 16 -1 16 -13 0
-10 -14 -12 -5 -13 56 -1 40 -6 82 -13 93 -10 16 -11 14 -6 -16 4 -19 8 -42
11 -51 2 -8 -3 -24 -11 -35 -15 -18 -16 -17 -11 16 l6 35 -11 -30 c-7 -16 -17
-36 -23 -44 -9 -12 -7 -13 12 -9 24 7 27 1 12 -22 -6 -10 -10 -11 -10 -2 0 6
-7 12 -15 12 -8 0 -15 4 -15 9 0 6 -16 3 -35 -5 -20 -8 -41 -12 -48 -8 -7 4
-8 3 -4 -2 5 -5 19 -9 30 -9 15 0 23 -7 25 -22 4 -25 -12 -31 -24 -11 -6 9
-10 5 -15 -12 -6 -23 -7 -24 -13 -5 -4 11 -11 29 -16 40 -8 18 -9 17 -9 -6 -1
-15 -8 -30 -17 -33 -23 -9 -29 0 -14 19 8 10 9 15 1 15 -6 0 -11 -4 -11 -10 0
-5 -12 -10 -26 -10 -17 0 -23 -4 -18 -12 5 -8 2 -9 -9 -5 -9 3 -19 2 -23 -4
-3 -6 -12 -8 -20 -5 -9 3 -11 0 -7 -11 4 -11 2 -14 -5 -9 -8 5 -11 -1 -10 -16
1 -13 -1 -36 -4 -53 -3 -16 -3 -24 -1 -17 6 17 23 15 23 -3 0 -22 37 -88 44
-77 3 5 18 7 33 5 30 -4 62 11 50 23 -4 4 -26 8 -49 10 -24 1 -46 3 -49 3 -4
1 -9 10 -12 22 -4 16 -3 18 9 8 11 -9 14 -8 15 2 0 8 4 6 8 -5 6 -15 10 -10
20 23 10 36 15 41 33 35 15 -5 19 -3 13 7 -4 8 2 4 14 -8 22 -24 37 -31 26
-13 -3 6 -1 10 4 10 6 0 11 -9 11 -20 0 -11 -5 -20 -11 -20 -5 0 -7 -5 -4 -10
3 -5 19 -10 36 -10 23 0 29 -4 29 -21 0 -18 4 -20 32 -14 37 8 36 8 62 6 12
-1 17 -7 14 -19 -4 -12 1 -18 13 -18 10 0 16 4 13 7 -8 13 10 17 34 8 14 -5
22 -17 22 -33 0 -13 7 -26 15 -29 12 -5 12 -2 3 21 -7 15 -15 31 -20 36 -4 6
-8 19 -8 30 0 17 -2 18 -10 6 -7 -11 -12 -12 -21 -3 -14 14 -2 36 14 27 7 -4
1 5 -12 19 -19 22 -22 29 -12 41 8 9 10 24 6 38 -4 13 -5 20 -1 17 11 -11 26
-70 15 -64 -5 4 -9 2 -9 -4 0 -5 6 -14 13 -18 11 -8 57 -122 60 -153 1 -8 -5
-15 -13 -15 -18 0 -43 43 -33 58 3 5 1 7 -5 3 -5 -3 -13 0 -16 6 -3 7 -3 1 0
-13 4 -17 -1 -32 -13 -45 -17 -16 -17 -17 0 -11 9 3 17 2 17 -3 0 -6 5 -10 11
-10 5 0 7 5 3 12 -4 7 -3 8 4 4 14 -9 16 -52 3 -61 -5 -3 -12 -1 -16 5 -3 5
-1 10 4 10 6 0 11 5 11 11 0 8 -4 8 -13 0 -8 -6 -13 -21 -12 -33 2 -24 -25
-51 -63 -63 -13 -4 -21 -9 -19 -12 3 -2 -6 -16 -19 -30 -22 -24 -23 -27 -6
-39 14 -10 15 -15 5 -25 -11 -10 -13 -10 -13 0 0 7 -4 10 -10 6 -5 -3 -7 -12
-4 -19 3 -8 0 -17 -6 -21 -8 -5 -6 -13 6 -27 16 -16 16 -21 4 -28 -23 -15 -27
-12 -35 17 -6 26 -8 26 -19 10 -17 -22 -33 -22 -46 2 -16 31 -11 38 10 12 11
-13 20 -18 20 -11 0 7 11 21 25 32 14 11 25 26 25 34 0 11 -5 10 -22 -5 -11
-11 -25 -18 -29 -15 -5 3 -6 -2 -3 -10 3 -9 2 -16 -4 -16 -5 0 -13 8 -17 18
-6 15 -7 15 -15 1 -10 -18 -2 -59 12 -59 5 0 7 -3 4 -8 -7 -11 23 -47 31 -37
5 4 2 10 -4 12 -7 3 -13 9 -13 15 0 7 5 7 13 -1 8 -6 17 -8 20 -4 4 3 7 2 7
-3 0 -7 21 -7 60 0 56 9 59 11 44 28 -9 9 -20 15 -25 13 -4 -3 -10 -1 -13 4
-15 23 17 20 35 -3 11 -14 28 -26 37 -26 13 0 12 -3 -6 -16 -13 -9 -31 -13
-42 -9 -11 4 -20 2 -20 -4 0 -6 5 -11 10 -11 6 0 10 -4 10 -10 0 -5 -9 -10
-21 -10 -11 0 -17 -4 -14 -10 6 -10 -7 -14 -32 -11 -6 1 -14 -2 -17 -7 -6 -10
35 -10 51 1 7 4 21 3 32 -3 28 -14 38 -12 16 4 -18 13 -17 14 10 37 15 13 33
29 39 35 9 9 17 8 31 -2 10 -8 17 -14 14 -15 -2 0 -14 -2 -27 -3 -12 -2 -32
-12 -43 -24 -25 -28 -16 -28 22 -1 16 11 29 17 29 14 0 -4 15 3 34 14 37 24
51 27 40 9 -4 -7 -3 -8 5 -4 17 11 2 29 -20 23 -11 -3 -19 -2 -19 3 0 15 25
27 53 26 15 -1 27 2 27 6 0 4 -9 8 -20 8 -21 0 -28 16 -9 22 5 2 7 11 4 21 -4
9 -10 15 -14 12 -10 -5 -8 62 2 71 4 4 7 14 7 23 0 14 -2 14 -11 1 -8 -11 -9
-9 -3 10 4 14 9 30 11 37 3 7 -3 10 -14 7 -20 -6 -44 30 -42 64 1 18 0 19 21
-37 12 -34 19 -21 9 17 -6 20 -6 32 0 32 5 0 9 -7 9 -16 0 -9 8 -28 18 -42 11
-15 29 -53 42 -84 13 -32 27 -58 31 -58 4 0 7 -9 6 -20 -1 -14 -6 -19 -17 -15
-12 5 -13 4 -3 -6 14 -14 17 -30 6 -27 -5 2 -9 -1 -10 -7 -1 -5 5 -9 13 -9 8
1 14 -2 14 -7 0 -5 -5 -9 -11 -9 -8 0 -8 -4 0 -14 10 -12 8 -13 -8 -9 -12 3
-21 1 -21 -6 0 -6 9 -11 20 -11 11 0 20 -5 20 -11 0 -5 3 -8 8 -6 10 6 42 -30
34 -39 -4 -4 -1 -4 6 0 7 4 9 13 6 19 -5 9 -3 9 6 0 11 -10 11 -15 0 -28 -7
-8 -10 -18 -6 -22 3 -3 6 -2 6 4 0 6 9 13 20 16 11 3 20 13 20 24 0 15 -2 16
-11 3 -8 -12 -9 -11 -5 5 5 16 1 21 -14 21 -11 0 -20 -4 -20 -8 0 -4 -5 -8
-12 -8 -9 0 -9 3 0 12 7 7 12 17 12 22 0 6 -4 5 -8 -2 -12 -17 -41 -5 -38 16
2 9 11 18 22 19 10 2 13 0 7 -3 -7 -3 -13 -13 -13 -21 0 -12 3 -13 13 -4 8 6
18 7 22 3 5 -4 5 1 2 11 -4 10 -7 21 -7 23 0 2 -6 4 -14 4 -8 0 -18 10 -22 23
-12 35 -13 48 -3 41 5 -3 9 -12 9 -19 0 -8 10 -25 22 -38 l23 -24 122 121 c67
66 125 117 129 114 7 -8 -221 -238 -236 -238 -6 0 -8 -4 -5 -10 3 -5 1 -10 -4
-10 -6 0 -11 -4 -11 -10 0 -5 6 -7 13 -4 8 3 28 -14 48 -37 48 -59 200 -209
211 -209 5 0 6 -6 1 -12 -12 -21 -12 -39 0 -35 7 3 11 10 9 17 -2 10 2 10 18
-1 25 -16 26 -35 2 -31 -9 1 -30 3 -47 4 -16 0 -36 8 -43 17 -12 14 -13 14 -8
-2 5 -15 0 -19 -20 -16 -14 2 -22 -26 -12 -38 7 -9 7 -13 -1 -13 -7 0 -10 -4
-6 -10 3 -5 17 0 30 12 18 16 22 24 13 29 -8 5 -5 8 9 7 14 -2 19 -7 15 -18
-5 -13 -3 -13 10 -2 11 9 18 10 23 2 3 -6 10 -8 14 -5 5 2 16 -4 26 -15 10
-11 22 -17 26 -14 5 3 9 0 9 -6 0 -7 7 -9 16 -6 8 3 12 2 9 -3 -3 -5 -1 -12 5
-16 5 -3 10 0 10 7 0 8 10 15 22 15 13 1 18 -1 13 -5 -6 -4 -10 -14 -10 -22 0
-10 -8 -14 -23 -13 -19 3 -21 0 -13 -16 6 -10 7 -22 3 -26 -4 -5 -2 -5 5 -1
16 9 27 -28 15 -51 -5 -10 -7 -23 -5 -30 2 -6 -1 -15 -8 -19 -9 -5 -10 -2 -6
9 3 9 2 19 -2 22 -11 6 -23 -23 -15 -36 3 -5 0 -9 -5 -9 -6 0 -11 -8 -11 -17
0 -15 2 -16 10 -3 8 12 10 11 10 -6 0 -27 -22 -46 -44 -38 -9 3 -16 1 -16 -6
0 -6 5 -8 11 -4 8 4 10 -3 7 -22 -3 -16 -3 -24 -1 -17 9 24 45 26 67 3 11 -13
15 -19 7 -15 -11 6 -13 4 -8 -8 3 -10 2 -17 -2 -17 -5 0 -11 6 -14 13 -2 6 -7
9 -11 6 -3 -3 0 -19 8 -35 9 -15 13 -30 11 -32 -7 -7 -30 22 -30 37 0 8 -6 16
-14 19 -10 3 -12 0 -8 -11 4 -12 2 -14 -10 -10 -11 4 -14 2 -9 -5 4 -7 14 -12
22 -12 8 0 14 -4 14 -8 0 -5 16 -16 36 -25 19 -10 33 -13 30 -8 -3 5 2 15 11
22 15 12 16 12 10 -3 -3 -10 -1 -20 5 -24 7 -4 8 -3 4 4 -5 8 1 11 16 9 17 -1
22 3 20 16 -2 9 2 17 8 17 5 0 10 5 10 11 0 5 -5 7 -10 4 -6 -3 -10 -1 -10 4
0 6 5 11 11 11 5 0 7 4 4 10 -3 6 1 7 10 3 12 -4 13 -8 5 -13 -8 -5 -9 -10 -2
-14 6 -3 13 0 15 6 4 10 8 10 15 -1 8 -11 12 -10 21 7 15 28 13 41 -3 19 -12
-15 -15 -15 -26 -2 -10 12 -10 15 4 15 9 0 22 11 28 25 11 23 13 24 21 8 10
-16 11 -16 18 2 11 29 10 55 -2 55 -6 0 -8 -9 -4 -21 6 -19 5 -20 -7 -9 -8 8
-15 23 -16 34 0 13 2 16 6 9 12 -19 28 -1 27 30 0 31 -9 35 -24 10 -8 -15 -11
-15 -12 -3 -6 45 -3 67 7 67 7 0 9 -7 6 -15 -4 -11 -1 -14 11 -9 16 6 67 -13
67 -25 0 -5 5 -8 10 -8 6 0 10 6 10 13 0 7 8 13 18 13 9 1 26 5 36 9 14 6 17
5 11 -4 -6 -10 -2 -12 16 -7 24 7 24 7 -1 -8 -16 -9 -27 -11 -31 -4 -5 7 -13
6 -25 -2 -16 -10 -16 -11 -1 -6 21 7 22 -2 0 -26 -20 -22 -11 -24 11 -2 9 8
28 17 43 18 15 2 29 8 31 14 2 8 10 8 28 0 27 -13 32 -28 8 -28 -9 0 -12 5 -8
12 5 8 2 9 -10 5 -10 -4 -21 -7 -24 -7 -4 0 0 -5 8 -10 9 -6 10 -10 3 -10 -6
0 -15 5 -18 10 -3 6 -11 10 -16 10 -6 0 -7 -5 -3 -12 5 -8 2 -9 -10 -5 -10 4
-15 3 -11 -3 3 -5 20 -8 38 -7 18 2 43 -3 57 -10 31 -16 64 -18 40 -3 -12 7
-10 9 8 7 13 -1 18 -5 13 -10 -17 -17 0 -37 25 -31 15 4 29 0 41 -11 16 -17
15 -17 -18 -10 -19 3 -42 9 -51 11 -14 4 -18 -1 -18 -20 0 -14 -4 -28 -10 -31
-5 -3 -9 -30 -9 -58 l2 -52 6 47 c10 73 17 65 14 -17 -1 -41 2 -77 7 -80 12
-7 14 -82 3 -88 -5 -3 -8 14 -7 36 1 30 0 33 -3 10 -3 -23 -8 -30 -19 -26 -16
6 -20 43 -4 43 6 0 9 12 9 28 -1 16 -3 20 -6 10 -2 -10 -9 -18 -14 -18 -13 0
-11 -78 3 -86 7 -5 9 -2 4 7 -4 8 -2 7 6 -2 18 -22 105 -34 124 -18 12 10 17
10 23 1 12 -20 59 33 56 63 -2 14 0 25 4 25 14 0 32 52 25 72 -4 15 -3 18 6
13 9 -5 11 -4 6 4 -12 19 -28 1 -22 -25 4 -14 2 -24 -4 -24 -5 0 -10 -8 -10
-17 0 -30 -12 -5 -15 31 -2 21 0 34 6 30 5 -3 19 15 30 40 21 49 35 64 19 20
-14 -35 -12 -42 4 -19 7 11 16 33 20 49 5 21 10 26 15 17 5 -7 11 -12 15 -12
3 1 44 1 91 1 76 0 84 -2 79 -18 -5 -14 -4 -15 5 -2 9 12 10 6 6 -25 -5 -30
-4 -36 4 -25 14 20 14 53 -1 69 -11 10 -9 11 5 5 14 -5 17 -16 15 -55 -2 -27
-6 -49 -10 -49 -8 0 2 -41 14 -57 5 -7 7 -16 4 -21 -8 -13 25 -92 38 -92 6 0
5 5 -2 12 -15 15 -16 45 -1 54 7 4 10 1 7 -7 -3 -8 -1 -25 4 -38 5 -15 4 -28
-3 -37 -9 -11 4 -12 76 -9 48 2 90 7 94 11 3 4 -23 4 -59 1 -74 -8 -110 4 -64
21 18 6 22 11 12 11 -10 1 -18 9 -19 19 0 10 -3 12 -6 5 -7 -19 -23 -16 -23 5
0 9 -14 32 -30 50 -21 25 -29 43 -28 68 1 19 4 31 7 26 3 -5 16 -14 29 -21 12
-7 20 -16 16 -22 -4 -6 -11 -6 -20 2 -8 6 -18 9 -22 5 -9 -9 26 -36 41 -32 7
2 9 1 5 -1 -12 -7 -10 -33 2 -33 6 0 10 -5 10 -10 0 -6 8 -18 18 -28 38 -38
67 -52 107 -51 22 0 34 3 28 6 -9 3 -8 11 4 30 13 19 16 46 14 121 -1 53 -6
99 -11 102 -4 3 -10 21 -12 40 -3 32 -1 35 25 36 15 1 27 -3 27 -7 0 -5 -4 -9
-10 -9 -5 0 -7 -7 -4 -15 6 -14 8 -13 19 1 7 10 10 25 8 35 -6 21 33 35 70 26
12 -3 33 -8 47 -11 21 -6 22 -5 5 3 -19 9 -19 10 -1 10 10 1 25 -7 33 -16 13
-17 13 -16 4 2 -6 14 -6 27 1 40 8 14 8 20 0 23 -7 2 -10 8 -6 13 3 5 1 9 -5
9 -5 0 -13 -5 -16 -10 -4 -6 -11 -7 -17 -4 -7 5 -2 11 12 16 14 5 27 4 36 -3
9 -7 20 -6 41 5 19 10 22 15 11 16 -9 0 -20 -5 -23 -10 -3 -6 -11 -10 -18 -10
-20 0 16 27 52 39 29 9 32 9 21 -4 -7 -8 -8 -15 -2 -15 15 0 33 26 24 36 -4 5
-3 6 2 1 17 -13 14 -46 -2 -39 -10 3 -13 1 -8 -6 5 -8 2 -10 -9 -6 -10 4 -15
2 -13 -6 2 -7 -4 -15 -12 -17 -13 -4 -13 -3 0 7 13 9 12 11 -4 8 -29 -4 -32
-28 -4 -29 l23 -1 -22 -6 c-17 -5 -20 -11 -13 -22 7 -12 12 -12 22 -2 14 14
38 16 38 3 0 -5 -6 -11 -12 -14 -7 -2 -3 -2 10 0 25 4 28 -3 8 -23 -17 -16
-36 -19 -36 -4 0 6 -7 10 -15 10 -8 0 -15 -4 -15 -10 0 -5 7 -10 15 -10 8 0
15 -5 15 -11 0 -7 10 -9 26 -5 25 7 25 6 10 -10 -15 -14 -21 -15 -42 -4 -13 8
-24 18 -24 24 0 6 -5 4 -11 -4 -9 -13 -10 -12 -5 3 6 18 -12 57 -27 57 -4 0
-5 -5 -1 -11 4 -7 8 -19 8 -28 3 -24 47 -111 57 -111 5 0 6 7 3 15 -4 8 -10
15 -15 15 -5 0 -9 7 -9 15 0 8 7 15 15 15 8 0 15 -4 15 -10 0 -5 7 -10 15 -10
8 0 15 5 15 10 0 17 49 11 69 -9 16 -16 17 -21 5 -32 -9 -10 -10 -19 -4 -29 8
-12 12 -9 22 17 7 18 19 33 28 33 12 0 15 9 12 40 -3 31 -8 40 -22 40 -10 0
-21 -8 -23 -17 -3 -10 -4 -6 -3 8 1 15 7 33 13 40 11 13 13 20 13 35 0 4 6 1
14 -5 16 -14 25 -5 32 34 5 29 -22 46 -38 24 -8 -12 -9 -11 -5 1 2 9 15 15 30
15 15 -1 29 5 31 12 3 7 -1 10 -12 7 -14 -5 -14 -3 2 10 10 8 23 13 29 9 6 -3
7 -1 3 5 -3 5 6 20 21 31 21 15 24 20 11 21 -9 0 -18 -6 -21 -12 -2 -7 -7 -10
-11 -7 -3 3 1 14 8 25 13 16 18 17 35 6 26 -15 28 -1 3 21 -16 15 -19 15 -30
-4 -7 -11 -17 -17 -21 -14 -5 3 -8 -6 -6 -20 1 -14 -2 -25 -7 -25 -5 0 -7 -4
-4 -9 3 -5 -1 -12 -10 -15 -23 -9 -31 -7 -14 4 8 5 11 12 8 15 -4 4 -17 -2
-29 -14 -13 -12 -30 -20 -38 -19 -12 2 -15 -4 -13 -25 5 -47 -30 -76 -43 -36
-20 61 -12 76 35 69 8 -1 12 1 8 5 -4 4 -1 13 5 20 18 18 77 47 77 38 0 -5
-15 -15 -32 -24 -32 -15 -49 -39 -28 -39 6 0 9 4 6 8 -3 5 11 18 32 28 20 11
37 25 37 31 0 7 6 18 12 25 7 6 13 9 13 5 0 -3 12 5 26 18 29 27 50 24 34 -5
-7 -13 -6 -21 5 -30 12 -10 13 -5 10 29 -3 34 0 43 18 53 12 7 25 11 30 10 4
-1 7 2 7 8 0 20 44 50 64 44 16 -5 18 -3 10 6 -9 9 3 27 49 73 33 34 64 61 69
59 5 -1 6 2 3 9 -8 13 29 51 41 41 4 -4 4 -2 0 5 -9 16 23 53 40 46 9 -3 12 2
9 16 -2 12 1 21 7 21 6 0 8 -11 5 -27 -6 -33 1 -53 19 -53 8 0 14 -3 14 -8 0
-9 68 -33 93 -33 9 0 15 -4 12 -9 -3 -4 1 -10 9 -13 8 -3 13 1 12 10 0 9 5 18
12 20 8 3 10 -1 5 -13 -4 -12 -3 -15 5 -10 8 4 10 2 6 -7 -6 -18 12 -32 21
-17 11 17 23 11 27 -13 2 -18 10 -22 39 -23 30 -1 36 2 32 16 -3 10 8 29 25
46 16 16 31 36 34 44 2 8 7 10 10 4 4 -5 -7 -25 -23 -43 -16 -19 -28 -41 -28
-50 1 -13 2 -13 6 2 2 9 8 15 13 12 5 -3 11 4 15 15 4 11 11 17 17 14 7 -5 9
-1 5 9 -3 9 -2 19 4 23 6 3 8 12 5 20 -3 9 1 14 12 15 12 0 10 3 -7 10 -16 6
-22 15 -18 29 6 22 -11 31 -35 18 -12 -5 -18 -5 -18 2 0 5 4 10 10 10 5 0 2 9
-7 20 -10 11 -23 20 -31 20 -7 0 -10 4 -7 10 3 6 -4 10 -17 10 -16 0 -19 3
-10 9 10 6 9 10 -7 14 -12 3 -18 1 -15 -4 3 -5 -2 -12 -10 -15 -9 -3 -13 -10
-10 -15 3 -5 10 -7 15 -4 5 4 9 1 9 -6 0 -8 4 -8 16 1 13 11 16 10 21 -9 4
-18 8 -20 15 -9 7 9 8 8 4 -6 -5 -13 -2 -17 8 -13 10 4 13 1 10 -8 -9 -22 5
-38 22 -24 11 9 15 7 21 -7 3 -11 11 -23 17 -27 7 -5 3 -7 -9 -4 -11 2 -19 9
-17 16 1 7 -2 10 -7 7 -5 -4 -8 -15 -6 -26 3 -14 -3 -22 -20 -26 -13 -3 -26
-13 -28 -22 -2 -10 -8 2 -12 25 -4 23 -10 42 -14 41 -21 -2 -74 3 -69 7 9 9
68 12 74 4 7 -13 44 -11 44 2 0 5 -4 8 -8 5 -4 -2 -14 0 -22 6 -12 8 -12 9 3
4 9 -3 17 -1 17 4 0 14 -13 19 -63 21 -38 2 -52 9 -78 36 -24 26 -28 37 -20
47 14 16 61 12 72 -6 6 -9 9 -9 9 -1 0 6 3 20 7 30 6 15 4 16 -9 5 -13 -10
-17 -10 -22 4 -3 9 -4 20 0 25 3 5 0 9 -6 9 -7 0 -7 7 1 23 12 22 12 22 -8 2
-11 -11 -16 -23 -10 -26 6 -4 5 -9 -1 -13 -19 -12 -19 19 0 46 13 19 15 29 7
34 -7 4 -10 3 -7 -2 3 -5 -3 -18 -14 -29 -14 -14 -19 -16 -17 -5 2 8 -2 24 -8
36 -8 14 -8 25 -1 35 8 12 9 11 5 -3 -3 -9 0 -24 7 -33 12 -16 13 -16 19 -1 4
9 13 16 21 16 14 0 32 36 28 54 -2 4 4 19 12 31 14 22 14 25 -5 47 -16 18 -19
19 -15 5 3 -10 2 -15 -4 -12 -5 3 -18 -16 -30 -41 -11 -26 -23 -44 -27 -41 -3
4 -1 13 6 20 6 8 18 39 27 68 8 30 19 63 24 74 4 11 16 57 26 102 11 45 22 80
25 77 3 -2 5 22 3 54 -1 38 1 50 6 37 7 -16 9 -14 10 15 4 82 5 85 22 85 9 0
20 4 24 8 14 14 12 34 -3 34 -8 0 -12 -6 -9 -14 3 -8 1 -11 -5 -8 -5 4 -16 1
-24 -5 -12 -10 -15 -9 -15 9 0 14 4 20 11 15 8 -4 8 -1 1 12 -5 11 -9 51 -10
89 0 70 -5 107 -24 201 -7 36 -7 57 1 71 11 22 -3 83 -20 83 -9 0 -1 -28 14
-48 7 -9 7 -16 0 -23 -12 -12 -37 76 -27 93 4 7 3 8 -4 4 -7 -4 -12 -2 -12 3
0 6 5 11 10 11 6 0 10 9 10 19 0 28 -20 37 -21 9 0 -25 -39 72 -42 107 -1 11
-11 28 -21 38 -10 9 -14 17 -9 17 6 0 16 -7 23 -15 7 -8 18 -15 25 -15 8 0 16
-13 20 -29 3 -16 13 -32 21 -35 9 -3 13 -10 10 -14 -3 -5 6 -20 19 -34 19 -20
22 -33 19 -73 -2 -26 1 -66 7 -89 6 -22 10 -50 10 -61 0 -16 3 -15 15 8 14 26
14 32 -5 70 -11 22 -18 43 -16 46 3 2 5 -1 5 -7 0 -6 8 -9 18 -6 12 4 13 3 4
-3 -11 -8 -10 -12 1 -21 11 -9 14 -8 14 6 0 9 -5 23 -11 31 -9 12 -7 13 8 8
16 -6 17 -5 7 7 -7 8 -18 13 -25 10 -7 -3 -13 2 -13 11 0 18 42 21 53 3 5 -7
3 -8 -7 -3 -12 8 -12 6 0 -8 7 -9 19 -17 25 -17 6 0 4 5 -4 10 -17 11 -15 12
22 14 15 1 30 5 33 8 4 4 -5 5 -19 4 -33 -4 -46 29 -19 49 18 14 65 10 71 -7
2 -4 11 1 20 13 11 13 23 18 35 13 13 -5 15 -10 7 -19 -9 -11 -7 -12 9 -8 17
4 19 9 10 25 -13 24 -5 48 16 48 14 0 17 4 19 33 1 6 5 15 9 18 4 3 2 18 -4
33 -11 23 -14 25 -22 10 -8 -13 -11 -14 -18 -3 -6 10 -11 5 -20 -18 -8 -24
-17 -33 -34 -33 -13 0 -26 7 -29 16 -3 8 -2 12 3 9 12 -7 19 4 25 39 4 21 1
27 -12 24 -9 -2 -19 -14 -22 -28 -6 -26 -41 -36 -46 -12 -1 7 0 8 3 2 6 -12
23 -13 23 -1 0 15 -33 23 -41 9 -6 -9 -11 -9 -23 1 -14 12 -16 10 -16 -8 0
-22 -11 -25 -45 -12 -19 8 -19 8 0 19 11 6 15 12 8 12 -6 0 -15 -4 -18 -10 -3
-5 -21 -10 -38 -10 -21 0 -28 3 -19 9 11 7 11 9 -2 14 -10 4 -16 1 -16 -8 0
-8 -4 -15 -9 -15 -15 0 -23 18 -11 25 5 3 10 12 10 18 0 9 -2 9 -8 1 -4 -6
-21 -18 -38 -27 l-32 -16 -13 32 c-7 18 -21 44 -31 60 -11 15 -16 27 -13 27 9
0 31 -23 38 -40 4 -12 6 -12 6 2 1 20 17 32 32 23 6 -5 3 -13 -10 -22 -12 -8
-21 -21 -21 -29 0 -21 17 -17 23 6 3 11 11 20 19 19 10 0 10 -2 1 -6 -20 -7
-15 -23 5 -17 9 3 5 -2 -10 -11 -31 -17 -39 -31 -9 -16 10 6 21 8 24 5 3 -3
11 4 17 16 8 15 8 20 1 16 -10 -6 -13 0 -10 20 0 4 -4 10 -11 14 -6 4 -12 14
-14 23 -1 8 -13 25 -26 37 l-25 21 25 -6 c21 -5 22 -4 8 5 -21 13 -65 3 -72
-16 -3 -7 3 -18 12 -23 15 -9 15 -10 1 -11 -26 0 -33 32 -11 50 10 9 17 21 14
28 -2 6 2 13 10 14 43 5 68 2 68 -7 0 -5 8 5 17 23 9 18 21 31 28 28 6 -2 18
0 26 5 11 7 11 9 1 9 -10 0 -10 4 2 16 9 8 16 22 16 30 0 11 4 12 19 4 24 -13
31 -13 31 0 0 5 -11 12 -25 16 -15 4 -28 16 -31 30 -4 15 -13 24 -25 24 -10 0
-23 9 -30 21 -8 15 -18 20 -35 16 -13 -2 -21 -1 -19 3 8 12 -17 27 -52 32 -18
2 -31 2 -28 0 3 -3 -3 -11 -13 -19 -15 -11 -15 -12 -1 -7 10 3 20 0 24 -7 6
-8 -1 -10 -24 -7 -17 2 -31 1 -31 -4 0 -5 -5 -6 -10 -3 -6 3 -13 -1 -16 -9 -3
-9 -12 -16 -19 -16 -18 0 -66 40 -60 50 3 5 -4 11 -15 15 -11 4 -18 11 -14 16
3 6 12 5 22 -3 13 -9 12 -7 -2 9 -10 12 -23 21 -29 20 -9 -2 -19 30 -30 93 -2
9 -6 21 -10 27 -5 8 1 11 20 10 19 -1 28 3 28 13 0 8 -7 15 -15 16 -8 1 -27 2
-42 2 -15 1 -36 11 -46 22 -11 12 -25 18 -35 14 -12 -4 -20 2 -28 20 -14 31
-6 44 16 26 13 -11 15 -9 15 11 0 13 -5 31 -11 39 -8 12 -9 8 -5 -15 3 -16 3
-24 0 -17 -5 10 -10 9 -25 -4 -26 -23 -24 -12 6 32 14 20 25 32 25 27 0 -6 11
-22 25 -37 20 -22 23 -31 15 -47 -14 -25 -4 -42 20 -34 12 4 22 0 28 -11 8
-15 12 -13 26 14 9 17 13 37 10 46 -3 8 3 19 15 26 20 10 28 40 15 53 -11 11
-34 -5 -34 -23 0 -11 -4 -21 -9 -24 -11 -7 -43 28 -34 37 7 8 7 8 -59 11 -31
2 -45 -1 -42 -9 3 -6 -4 -20 -16 -30 -11 -10 -20 -24 -20 -32 0 -8 -4 -12 -9
-9 -11 7 -43 -28 -35 -37 4 -4 13 1 21 11 13 16 14 16 9 0 -3 -12 -1 -15 10
-11 8 3 25 -6 39 -21 13 -14 20 -26 15 -26 -6 0 -10 -5 -10 -11 0 -5 5 -7 10
-4 6 3 10 -3 10 -14 0 -12 0 -24 1 -28 1 -4 -14 -14 -31 -21 -32 -13 -32 -13
-27 15 3 15 8 38 12 51 10 30 -8 28 -45 -5 -32 -28 -34 -41 -3 -25 17 9 19 7
19 -21 -1 -28 2 -32 26 -32 15 1 24 -3 21 -8 -3 -5 5 -6 18 -2 17 4 20 3 10
-3 -10 -7 -10 -11 -1 -17 9 -6 9 -9 -1 -16 -16 -10 -41 9 -32 24 4 6 0 8 -8 5
-8 -3 -25 2 -37 12 -15 13 -18 20 -10 23 9 4 7 6 -3 6 -22 1 -104 47 -121 68
-8 10 -8 14 -1 10 6 -4 14 -3 18 3 5 8 -5 13 -25 12 -3 0 -5 11 -5 24 0 13 3
24 8 24 4 0 7 -9 7 -20 0 -11 5 -20 11 -20 5 0 7 5 4 10 -3 6 -2 10 4 10 5 0
13 -5 17 -11 4 -8 9 -7 15 2 5 8 9 9 9 3 0 -6 -9 -19 -20 -29 -15 -14 -17 -21
-9 -32 6 -7 17 -13 23 -13 6 0 3 6 -6 13 -15 12 -15 14 1 24 13 8 22 7 36 -3
25 -19 30 -18 32 6 2 17 -2 20 -20 15 -17 -5 -19 -4 -7 4 13 9 12 11 -4 11
-18 0 -16 4 10 32 27 30 27 31 2 9 -16 -14 -33 -21 -43 -17 -9 3 -13 2 -10 -4
3 -6 1 -10 -4 -10 -6 0 -11 8 -11 18 0 14 -2 15 -10 2 -9 -14 -14 -7 -11 13 1
5 -3 6 -8 3 -14 -9 -42 5 -34 18 3 6 2 7 -2 3 -15 -13 -17 -60 -3 -68 10 -7
10 -9 -1 -9 -11 0 -9 -4 5 -15 10 -9 -7 -3 -38 12 -35 17 -52 31 -45 35 9 5 8
8 -2 8 -11 0 -9 4 5 15 23 17 34 19 34 5 0 -6 -5 -9 -12 -8 -22 5 -14 -27 11
-39 30 -17 36 -16 22 0 -6 8 -8 17 -4 21 4 4 -1 4 -12 1 -17 -6 -18 -5 -5 7 8
7 16 18 17 23 2 14 -38 17 -53 4 -8 -7 -14 -7 -19 1 -3 5 -1 10 4 10 6 0 11
12 10 28 l0 27 -11 -25 -11 -25 -7 30 c-11 45 -11 65 0 65 6 0 10 -9 10 -20 0
-11 5 -20 10 -20 6 0 9 23 9 53 -1 28 -3 44 -6 34 -7 -27 -26 -15 -36 24 -5
19 -13 36 -17 39 -5 3 -5 12 1 20 8 13 11 13 22 -1 6 -8 20 -18 30 -22 12 -4
17 -17 17 -42 0 -19 5 -35 10 -35 6 0 8 11 4 26 -5 21 -4 25 6 19 10 -6 12 2
8 38 -5 46 -5 46 13 24 16 -19 18 -20 19 -4 0 9 -4 17 -9 17 -17 0 -22 34 -7
46 13 9 10 14 -22 31 -20 11 -36 24 -35 29 2 14 -36 12 -41 -3 -3 -7 1 -10 8
-7 7 3 18 -2 25 -9 9 -12 8 -16 -4 -21 -9 -3 -14 -2 -11 2 2 4 -6 12 -19 18
-22 11 -25 8 -39 -21 -12 -25 -21 -32 -36 -28 -16 4 -18 8 -9 19 8 9 8 14 1
14 -6 0 -14 -9 -17 -20 -4 -11 -10 -18 -15 -15 -5 3 -11 1 -14 -4 -3 -5 4 -11
15 -14 33 -9 16 -32 -22 -30 -19 0 -25 -1 -15 -4 15 -4 16 -7 5 -15 -10 -6 -7
-7 10 -3 16 5 21 4 17 -4 -4 -6 0 -11 8 -11 22 0 20 -17 -1 -23 -17 -4 -17 -5
0 -6 21 -1 23 -21 2 -21 -8 0 -15 4 -15 9 0 5 -13 11 -30 13 -23 4 -30 1 -30
-12 0 -13 8 -16 33 -13 27 3 29 2 12 -7 -16 -8 -13 -9 15 -5 19 3 29 2 23 -1
-15 -7 -17 -34 -3 -34 6 0 10 -7 10 -15 0 -8 -5 -15 -10 -15 -6 0 -10 -8 -8
-17 2 -12 -4 -18 -17 -20 -11 -1 -31 -3 -45 -4 -29 -3 -119 19 -139 35 -7 6
-25 12 -40 13 -20 3 -23 1 -11 -7 13 -8 13 -10 -2 -10 -9 0 -20 4 -23 10 -3 5
-22 7 -41 4 -19 -3 -34 -1 -34 4 0 13 28 23 35 12 3 -5 19 -5 37 1 19 5 36 5
41 0 5 -5 15 -7 22 -4 8 2 23 -1 34 -7 12 -6 26 -8 33 -4 7 4 -5 15 -28 27
-49 26 -82 31 -100 16 -8 -6 -23 -9 -33 -6 -11 3 -22 0 -24 -6 -2 -8 -16 -8
-48 2 -70 20 -86 22 -54 6 17 -8 23 -14 14 -15 -23 0 -70 39 -49 41 8 1 22 2
30 3 8 1 21 -3 29 -9 11 -7 13 -7 8 1 -9 15 27 24 44 12 10 -7 9 -8 -6 -3 -11
3 -16 2 -11 -2 4 -4 19 -8 32 -8 20 -1 23 3 18 20 -4 16 -3 17 5 5 5 -8 13
-12 16 -8 4 4 -5 14 -19 23 -24 16 -26 23 -26 83 0 36 -3 62 -7 59 -3 -4 -6
-38 -5 -75 l1 -67 -86 3 c-60 3 -88 0 -93 -9 -5 -7 -7 -1 -7 14 2 27 2 27 84
27 l82 0 7 34 c3 19 3 39 0 45 -9 13 4 82 13 77 4 -3 7 4 7 14 0 10 -4 16 -8
14 -11 -7 -10 4 3 28 6 11 9 22 6 24 -2 3 -10 -10 -17 -27z m-624 -36 c9 -13
9 -22 2 -30 -8 -9 -7 -13 3 -13 11 0 11 -2 -1 -9 -18 -12 -29 -5 -40 25 -6 15
-18 25 -32 25 -16 1 -12 4 12 9 19 4 37 8 39 9 2 0 10 -7 17 -16z m34 -3 c0
-5 -2 -10 -4 -10 -3 0 -8 5 -11 10 -3 6 -1 10 4 10 6 0 11 -4 11 -10z m448
-73 c2 -10 -3 -17 -12 -17 -10 0 -16 9 -16 21 0 24 23 21 28 -4z m49 -9 c-3
-8 -6 -5 -6 6 -1 11 2 17 5 13 3 -3 4 -12 1 -19z m663 12 c8 -5 10 -10 4 -10
-7 0 -14 -9 -17 -20 -5 -21 -41 -28 -52 -9 -8 12 22 49 39 49 6 0 18 -5 26
-10z m-1177 -20 c7 0 17 -10 22 -22 6 -12 17 -23 25 -26 9 -2 11 0 5 5 -11 9
-19 43 -11 43 3 0 11 -10 17 -22 11 -21 15 -40 21 -100 1 -10 7 -18 13 -18 5
0 3 -5 -5 -10 -21 -13 -37 5 -21 24 9 10 9 16 1 21 -7 4 -10 16 -7 26 3 11 1
19 -4 19 -5 0 -9 -4 -9 -10 0 -5 -9 -10 -21 -10 -11 0 -17 5 -14 10 3 6 -1 13
-11 17 -10 4 -20 0 -26 -10 -15 -29 -28 -19 -28 21 0 43 7 55 28 47 7 -3 19
-5 25 -5z m422 -22 c-15 -85 -13 -157 4 -130 4 6 11 4 19 -4 11 -12 8 -14 -19
-14 l-32 0 8 82 c4 46 9 86 11 90 11 17 15 6 9 -24z m12 -40 c-3 -7 -5 -2 -5
12 0 14 2 19 5 13 2 -7 2 -19 0 -25z m-981 -129 c3 -5 -3 -9 -13 -9 -17 -1
-17 -1 0 -14 16 -13 16 -14 -10 -21 -21 -5 -31 -2 -44 16 -9 12 -19 17 -22 12
-4 -6 -17 -13 -29 -16 -21 -5 -22 -5 -4 6 10 7 28 22 39 34 16 18 23 20 48 11
16 -5 32 -14 35 -19z m555 -29 c5 0 9 5 9 10 0 6 5 10 11 10 8 0 8 -4 0 -13
-8 -10 -7 -17 1 -25 7 -7 8 -12 4 -12 -5 0 -3 -7 4 -15 8 -9 8 -15 2 -15 -6 0
-19 -3 -29 -7 -15 -6 -16 -4 -5 9 10 13 10 17 -2 21 -8 3 -24 3 -35 0 -12 -3
-21 -1 -21 6 0 6 8 8 18 4 16 -5 16 -4 1 11 -16 18 -14 71 2 60 5 -3 9 1 10 8
1 7 6 -2 11 -19 6 -18 15 -33 19 -33z m1076 38 c-3 -8 -6 -5 -6 6 -1 11 2 17
5 13 3 -3 4 -12 1 -19z m-333 4 c3 -5 -8 -9 -24 -9 -16 0 -27 4 -24 9 3 4 14
8 24 8 10 0 21 -4 24 -8z m-207 -15 c34 -1 54 -5 45 -8 -10 -4 -69 -4 -132 -1
-66 3 -106 8 -95 12 11 4 43 6 70 3 28 -3 78 -5 112 -6z m-1055 -20 c7 -7 28
-23 46 -36 18 -12 30 -26 27 -31 -10 -15 7 -39 26 -37 10 1 19 5 19 10 0 5 -7
7 -14 4 -11 -4 -13 -1 -10 11 5 14 4 15 -5 2 -12 -17 -14 -10 -5 14 10 26 43
-23 37 -54 -3 -17 3 -34 18 -50 15 -17 20 -20 16 -7 -4 11 -1 20 8 23 7 3 11
12 8 20 -4 10 0 12 11 8 19 -7 21 -23 3 -30 -8 -3 -14 -11 -14 -18 0 -8 6 -12
14 -9 7 3 11 8 9 12 -2 3 2 11 9 18 10 9 14 9 18 -1 9 -24 -31 -47 -78 -45
-24 2 -50 -3 -59 -10 -11 -9 -16 -10 -16 -2 0 6 5 11 11 11 6 0 9 12 7 28 -2
19 -9 27 -23 27 -11 0 -23 5 -27 10 -4 6 -10 -5 -14 -22 -8 -42 -27 -42 -42 0
-16 44 -15 47 8 47 11 0 21 6 21 13 3 29 -4 52 -19 65 -10 7 -11 11 -4 7 15
-8 16 7 0 23 -7 7 -9 12 -6 12 4 0 13 -6 20 -13z m598 -4 c0 -3 -6 -3 -14 0
-7 3 -20 0 -27 -6 -11 -10 -11 -9 0 5 11 15 41 15 41 1z m-155 -24 c4 -6 4
-13 0 -17 -3 -3 -10 0 -14 7 -7 11 -11 10 -19 -5 -6 -10 -14 -16 -18 -12 -9
10 15 38 32 38 7 0 16 -5 19 -11z m1135 3 c0 -5 -13 -9 -30 -9 -16 0 -27 4
-24 9 3 4 16 8 30 8 13 0 24 -4 24 -8z m33 -44 c4 -23 1 -38 -6 -40 -7 -2 -45
8 -85 22 l-73 26 53 11 c60 12 77 9 27 -6 -26 -7 -28 -9 -11 -10 12 -1 22 -6
22 -12 0 -7 7 -8 18 -4 9 4 23 8 30 8 9 0 12 10 10 29 -3 16 -1 25 2 21 4 -4
10 -25 13 -45z m-38 12 c-3 -5 -12 -10 -18 -10 -7 0 -6 4 3 10 19 12 23 12 15
0z m-355 -25 c0 -8 -7 -15 -15 -15 -8 0 -15 -4 -15 -10 0 -5 5 -10 10 -10 6 0
10 -7 10 -15 0 -8 -6 -15 -14 -15 -10 0 -17 -16 -22 -45 -4 -32 -11 -45 -23
-45 -13 0 -16 11 -16 65 0 36 3 65 6 65 4 0 9 9 12 20 6 25 67 29 67 5z m-770
-9 c0 -3 -4 -8 -10 -11 -5 -3 -10 -1 -10 4 0 6 5 11 10 11 6 0 10 -2 10 -4z
m910 -6 c5 0 10 -26 12 -57 l3 -58 25 47 c22 42 28 47 50 41 14 -3 26 -7 28
-8 8 -7 -45 -165 -55 -165 -20 0 -23 16 -12 49 16 46 3 50 -18 7 -12 -27 -23
-36 -37 -34 -18 3 -20 10 -18 58 l2 55 -16 -47 c-9 -31 -20 -48 -31 -48 -17 0
-15 19 13 116 12 41 20 54 31 50 8 -3 19 -6 23 -6z m-945 -10 c3 -5 2 -10 -4
-10 -5 0 -13 5 -16 10 -3 6 -2 10 4 10 5 0 13 -4 16 -10z m683 -12 c17 -15 15
-68 -5 -90 -19 -22 -76 -24 -92 -4 -7 8 -11 32 -9 53 5 56 60 77 106 41z
m-808 2 c0 -5 -6 -10 -12 -10 -10 0 -10 -2 0 -8 8 -6 2 -9 -18 -9 -35 0 -39
14 -7 27 30 12 37 12 37 0z m591 -20 c11 -39 10 -88 -2 -95 -16 -10 -22 1 -28
48 -4 28 -11 42 -21 42 -11 0 -16 -14 -18 -52 -5 -95 -42 -55 -42 46 l0 36 52
0 c47 0 53 -2 59 -25z m-321 0 c0 -23 -25 -27 -33 -6 -4 9 1 17 11 19 9 3 18
5 20 6 1 0 2 -8 2 -19z m156 -8 c21 -13 34 -52 28 -77 -11 -44 -71 -60 -106
-28 -22 20 -23 70 -1 95 16 18 59 24 79 10z m-226 -27 c0 -8 7 -15 15 -15 10
0 14 -10 13 -33 -1 -39 7 -57 28 -57 19 0 18 -29 -2 -37 -23 -9 -46 8 -58 43
-5 16 -15 34 -23 39 -11 8 -11 17 -2 43 11 33 29 44 29 17z m95 -35 c28 -80
28 -80 7 -80 -15 0 -24 13 -36 49 -20 62 -20 73 1 69 9 -2 21 -19 28 -38z
m1535 0 c0 -5 -5 -10 -11 -10 -5 0 -7 5 -4 10 3 6 8 10 11 10 2 0 4 -4 4 -10z
m-542 -28 c17 -23 12 -68 -8 -65 -8 1 -28 5 -44 9 -21 5 -27 4 -22 -5 4 -6 18
-11 31 -11 32 0 40 -16 15 -30 -33 -18 -74 7 -78 49 -7 67 67 104 106 53z
m-1460 7 c-19 -11 -25 -49 -8 -49 6 0 10 7 10 15 0 15 48 40 58 31 3 -3 -7
-10 -22 -15 -14 -6 -26 -15 -26 -19 0 -5 -19 -22 -42 -37 -29 -20 -43 -24 -46
-15 -4 10 -6 9 -13 -1 -4 -7 -11 -10 -16 -5 -4 4 0 12 10 17 9 6 15 14 12 19
-3 4 2 10 10 14 8 3 15 13 15 23 0 14 2 15 9 5 6 -10 10 -9 14 7 3 14 13 21
29 21 20 -1 21 -2 6 -11z m331 -44 c13 -25 21 -52 17 -61 -4 -9 -9 -14 -13
-10 -3 3 -14 -1 -24 -10 -29 -26 -61 -14 -88 34 -17 31 -20 47 -13 54 15 15
36 -3 52 -42 7 -17 17 -30 22 -30 18 0 20 33 4 66 -20 43 -20 44 2 44 10 0 26
-18 41 -45z m-156 -11 c10 -4 17 -14 16 -23 -4 -32 13 -71 30 -69 24 4 19 -24
-7 -33 -19 -7 -26 -3 -47 31 -14 22 -29 40 -34 40 -9 0 -12 49 -4 63 3 4 10 6
16 3 7 -4 20 -9 30 -12z m1386 5 c17 -6 31 -15 31 -19 0 -5 3 -15 6 -24 4 -12
0 -16 -15 -16 -12 0 -21 6 -21 15 0 20 -36 19 -44 -1 -13 -33 -6 -44 24 -44
35 0 42 -25 9 -33 -27 -7 -67 11 -74 34 -9 27 5 68 28 84 12 8 22 15 23 15 0
0 15 -5 33 -11z m359 -35 c2 -21 12 -48 23 -60 10 -11 16 -24 12 -27 -10 -10
10 -8 27 3 11 7 12 10 2 10 -20 0 -9 23 12 26 13 2 15 -1 6 -11 -8 -10 -7 -16
7 -23 10 -6 14 -14 10 -18 -5 -5 -12 -2 -16 5 -5 7 -11 9 -14 4 -7 -11 7 -35
19 -32 19 3 34 -1 34 -12 0 -5 -5 -7 -11 -3 -7 4 -10 1 -7 -7 3 -8 16 -13 29
-11 18 1 21 0 9 -7 -8 -6 -11 -13 -7 -17 3 -4 13 -1 21 5 20 16 36 6 35 -22
-1 -20 -2 -20 -9 3 -9 29 -12 26 -15 -15 -1 -20 6 -37 21 -51 13 -12 20 -26
16 -30 -4 -5 -3 -5 3 -1 5 4 8 24 6 44 -2 25 1 33 9 28 6 -4 10 -21 9 -39 -3
-36 7 -59 23 -50 6 4 6 -1 -1 -14 -7 -12 -7 -23 -2 -26 5 -4 12 -1 14 4 3 6 4
5 3 -2 -5 -27 -26 -16 -57 29 -17 26 -50 67 -72 90 -21 22 -36 46 -33 51 3 6
2 13 -4 17 -5 3 -10 1 -10 -6 0 -16 -11 -5 -14 13 -3 23 -17 39 -28 32 -6 -4
-8 -3 -5 3 4 5 -5 16 -18 23 -14 7 -25 19 -25 27 0 7 -6 13 -13 13 -7 0 -22 7
-33 15 -17 14 -17 14 -1 9 14 -5 18 -2 17 12 -1 10 -2 30 -1 42 2 39 26 19 29
-24z m36 20 c3 -8 2 -12 -4 -9 -6 3 -10 10 -10 16 0 14 7 11 14 -7z m-2490 -8
c7 3 19 -2 26 -11 7 -8 11 -15 9 -16 -37 -7 -40 -7 -30 5 8 10 5 12 -12 11
-29 -3 -42 5 -26 16 8 5 15 4 17 -1 2 -5 9 -7 16 -4z m-21 -19 c4 3 7 1 7 -5
0 -18 -15 -15 -41 9 l-24 20 26 -15 c14 -9 29 -13 32 -9z m637 -2 c0 -7 -6
-15 -14 -18 -18 -7 -31 24 -14 34 15 9 28 2 28 -16z m1613 18 c4 -3 1 -16 -7
-28 -14 -21 -13 -23 10 -33 15 -7 24 -20 24 -34 0 -31 -48 -98 -66 -91 -19 7
-18 16 6 46 11 14 20 32 20 41 0 9 -8 16 -20 16 -11 0 -20 -4 -20 -8 0 -5 -9
-19 -19 -31 -14 -16 -24 -20 -35 -14 -14 7 -12 14 11 48 14 22 30 42 33 45 4
3 12 15 19 28 11 22 31 29 44 15z m-2303 -23 c0 -5 -5 -10 -11 -10 -5 0 -7 5
-4 10 3 6 8 10 11 10 2 0 4 -4 4 -10z m2580 -19 c0 -4 -6 -8 -14 -8 -8 0 -12
6 -9 14 5 13 23 9 23 -6z m-2524 -1 c10 0 14 -12 14 -39 0 -39 -11 -51 -49
-51 -10 0 -23 -12 -30 -26 -6 -15 -14 -24 -18 -21 -9 10 26 57 42 57 11 0 15
11 15 39 0 22 -3 41 -7 44 -5 2 -2 2 5 0 8 -1 20 -3 28 -3z m714 -91 c0 -4 -6
-9 -14 -12 -8 -3 -26 11 -45 38 -34 47 -38 61 -19 67 11 4 78 -77 78 -93z
m-774 56 c-1 -20 -7 -39 -14 -44 -8 -5 -13 -11 -13 -15 3 -19 0 -26 -10 -26
-6 0 -8 8 -5 18 3 9 2 23 -3 31 -6 10 -2 24 12 43 27 37 34 35 33 -7z m1764 7
c155 -42 300 -109 417 -196 69 -51 196 -163 203 -180 3 -6 24 -36 47 -66 227
-299 287 -784 143 -1149 -111 -282 -333 -520 -598 -643 -381 -176 -803 -138
-1142 102 -90 63 -220 191 -285 280 -69 95 -148 267 -181 395 -27 102 -29 124
-29 295 0 141 4 206 19 275 22 109 83 270 132 351 20 32 43 70 50 84 18 32
123 144 191 203 28 25 49 49 45 53 -4 4 -1 4 7 -1 7 -4 16 -3 20 2 8 13 183
113 241 138 25 11 48 24 52 29 4 6 10 7 14 4 4 -4 15 -3 25 3 11 5 58 18 107
29 120 26 409 22 522 -8z m-1127 6 c16 -8 25 -18 22 -27 -7 -18 23 -51 47 -51
26 0 23 -37 -4 -46 -17 -5 -27 1 -49 27 -15 19 -33 34 -40 34 -6 0 -14 17 -16
38 -4 41 0 43 40 25z m-243 -18 c0 -5 -5 -10 -11 -10 -5 0 -7 5 -4 10 3 6 8
10 11 10 2 0 4 -4 4 -10z m-449 -42 c6 -10 4 -18 -4 -21 -9 -3 -13 6 -14 32 0
20 2 29 5 21 2 -8 9 -22 13 -32z m2489 -28 c27 -27 26 -33 -12 -77 -18 -21
-33 -40 -34 -42 -2 -1 -19 9 -38 24 -39 29 -45 55 -21 75 13 11 22 10 50 -3
19 -9 35 -12 35 -7 0 6 -11 16 -25 22 -14 6 -25 15 -25 20 0 16 50 8 70 -12z
m-2350 0 c0 -5 -2 -10 -4 -10 -3 0 -8 5 -11 10 -3 6 -1 10 4 10 6 0 11 -4 11
-10z m514 -5 c-4 -8 -14 -15 -24 -15 -11 0 -22 -5 -26 -11 -5 -9 1 -10 22 -4
58 16 69 12 72 -22 4 -35 -25 -63 -66 -63 -30 0 -24 22 8 30 13 3 25 11 28 18
5 15 1 15 -34 2 -37 -14 -64 -4 -64 25 0 27 34 55 67 55 16 0 21 -4 17 -15z
m2226 -20 c0 -5 -5 -3 -10 5 -5 8 -10 20 -10 25 0 6 5 3 10 -5 5 -8 10 -19 10
-25z m80 0 c21 -13 9 -26 -22 -23 -18 2 -33 8 -33 13 0 6 -4 15 -8 22 -5 9 0
10 22 3 17 -5 35 -11 41 -15z m-2856 6 c3 -5 -4 -11 -17 -15 -33 -9 -37 -7
-31 9 7 16 39 20 48 6z m26 -31 c-20 -13 -33 -13 -25 0 3 6 14 10 23 10 15 0
15 -2 2 -10z m2910 -8 c0 -1 -18 -9 -41 -18 -35 -14 -40 -20 -35 -40 5 -19 3
-22 -11 -17 -11 4 -14 3 -9 -5 5 -8 1 -10 -11 -5 -23 9 -33 23 -33 50 0 20 3
21 25 13 20 -8 29 -6 42 10 10 12 27 18 45 17 15 -1 28 -3 28 -5z m-459 -29
c38 -36 37 -62 -6 -103 -27 -26 -38 -31 -47 -22 -9 9 -5 20 21 46 32 33 35 56
7 56 -7 0 -23 -11 -36 -25 -24 -26 -45 -32 -55 -16 -4 8 71 91 83 91 2 0 17
-12 33 -27z m269 -18 c0 -51 -16 -50 -19 1 -1 30 2 44 8 39 6 -3 11 -21 11
-40z m-2269 -14 c20 -19 30 -35 26 -45 -9 -23 -20 -20 -51 15 -27 29 -46 34
-53 12 -2 -6 10 -24 28 -41 21 -20 30 -35 26 -46 -8 -20 -18 -15 -72 33 -35
30 -37 35 -22 46 9 7 17 16 17 22 0 16 23 33 46 33 13 0 37 -13 55 -29z m-330
-25 c-9 -11 -10 -20 -1 -35 10 -20 6 -26 -14 -22 -14 3 -26 -22 -20 -41 2 -9
0 -19 -6 -23 -5 -3 -10 -1 -10 4 0 6 -8 3 -18 -6 -21 -21 -23 -53 -4 -53 7 0
10 -5 7 -10 -4 -6 -11 -8 -16 -5 -5 4 -9 1 -9 -4 0 -17 28 -13 40 7 17 26 8 4
-30 -75 -24 -49 -39 -71 -49 -68 -9 4 -11 0 -7 -11 4 -10 -1 -40 -11 -68 -9
-28 -16 -55 -15 -59 1 -5 -2 -6 -7 -2 -7 4 -7 15 0 32 12 33 3 44 -11 12 -10
-22 -10 -22 -6 -2 2 12 -1 24 -7 26 -6 2 -6 16 3 41 7 21 8 41 4 45 -14 10
-12 48 3 48 7 0 13 -4 13 -9 0 -4 4 -8 10 -8 5 0 7 7 4 14 -7 18 26 65 45 66
11 0 9 4 -5 14 -18 14 -18 16 16 53 19 20 40 41 45 45 6 4 6 8 1 8 -5 0 -3 6
3 14 9 11 5 19 -20 40 -17 15 -29 29 -27 31 3 3 13 -4 22 -14 10 -11 25 -17
34 -14 15 4 15 3 2 -6 -18 -13 -1 -15 19 -2 10 6 6 11 -15 19 l-29 10 27 1
c15 1 30 6 33 11 3 6 9 10 12 10 3 0 0 -6 -6 -14z m2453 -27 c-8 -14 -34 -11
-34 4 0 8 3 17 7 20 9 9 34 -13 27 -24z m196 21 c0 -5 -9 -10 -20 -10 -11 0
-20 5 -20 10 0 6 9 10 20 10 11 0 20 -4 20 -10z m-2436 -62 c31 -24 56 -48 56
-55 0 -26 -22 -23 -62 9 -74 58 -91 75 -83 88 10 15 23 9 89 -42z m2200 26 c6
-15 -1 -22 -63 -71 -21 -17 -41 -16 -41 1 0 13 78 86 91 86 4 0 10 -7 13 -16z
m236 -54 c0 -5 -2 -10 -4 -10 -3 0 -8 5 -11 10 -3 6 -1 10 4 10 6 0 11 -4 11
-10z m-172 -22 c6 -6 12 -26 12 -45 0 -41 -23 -41 -28 0 -4 30 -31 37 -52 12
-15 -18 -6 -45 15 -45 8 0 15 -7 15 -15 0 -25 -48 -18 -66 10 -41 63 43 131
104 83z m212 2 c13 -8 12 -10 -3 -10 -10 0 -16 -4 -12 -9 3 -5 1 -12 -4 -15
-5 -3 -11 1 -15 9 -3 8 -1 15 5 15 6 0 7 5 4 10 -8 13 5 13 25 0z m-2540 -76
c31 -17 47 -31 43 -40 -7 -19 -20 -18 -59 7 -19 11 -38 18 -44 14 -20 -13 -9
-36 25 -52 22 -11 34 -23 32 -33 -4 -20 -29 -15 -81 18 -34 22 -40 30 -31 39
7 7 16 9 19 6 3 -4 6 4 6 17 0 19 23 48 39 50 2 0 25 -12 51 -26z m2392 -41
c33 -30 23 -65 -27 -96 -25 -15 -48 -27 -50 -27 -2 0 -14 20 -26 45 -18 36
-20 47 -9 60 18 22 40 19 72 -12 22 -21 28 -23 28 -10 0 9 -4 17 -10 17 -5 0
-14 9 -20 20 -9 16 -8 20 6 20 10 0 26 -7 36 -17z m251 -65 c7 0 17 -2 22 -2
6 -1 16 -5 23 -10 8 -5 12 -3 10 6 -2 8 4 12 15 10 10 -2 24 1 30 6 7 5 20 12
30 15 15 6 16 4 7 -13 -7 -13 -21 -20 -41 -20 -24 0 -30 -4 -27 -17 2 -10 10
-17 16 -15 7 1 12 -3 12 -9 0 -5 4 -8 8 -5 5 3 9 -2 9 -10 0 -20 -46 -51 -55
-37 -4 5 -14 13 -22 16 -12 4 -11 6 3 6 9 1 17 7 17 15 0 21 -38 45 -61 39
-16 -5 -19 0 -18 28 1 19 3 26 6 17 2 -10 10 -19 16 -20z m21 17 c-4 -8 -10
-12 -15 -9 -11 6 -2 24 11 24 5 0 7 -7 4 -15z m300 -23 c-4 -18 -11 -32 -15
-32 -9 0 -2 44 8 63 10 16 13 0 7 -31z m-3464 -12 c0 -5 -2 -10 -4 -10 -3 0
-8 5 -11 10 -3 6 -1 10 4 10 6 0 11 -4 11 -10z m437 -7 c21 -10 39 -18 40 -18
6 -3 -37 -84 -47 -90 -6 -3 -19 -3 -30 0 -16 5 -20 15 -20 51 0 28 -4 43 -10
39 -5 -3 -10 -19 -10 -36 0 -36 -17 -38 -26 -4 -8 31 19 75 46 75 11 0 36 -8
57 -17z m2553 -6 c0 -14 -120 -77 -145 -77 -37 0 -9 30 58 62 72 35 87 38 87
15z m371 7 c17 -20 20 -44 9 -63 -7 -13 -10 -10 -15 12 -4 15 -10 27 -14 27
-4 0 -7 9 -7 20 0 24 9 25 27 4z m-3271 -61 c0 -16 -19 -37 -27 -30 -4 5 -1
13 7 18 11 8 10 9 -7 4 -14 -4 -23 -2 -23 4 0 6 11 11 25 11 14 0 25 -3 25 -7z
m198 -41 c2 -7 -4 -15 -13 -18 -20 -8 -27 -1 -19 20 7 18 25 17 32 -2z m85
-19 c44 -16 59 -34 38 -47 -5 -4 -34 3 -64 15 -38 15 -54 26 -50 35 7 18 18
18 76 -3z m2682 -65 c18 -63 19 -68 2 -68 -8 0 -21 19 -30 42 -13 31 -20 39
-28 31 -9 -9 -9 -20 0 -43 6 -18 8 -36 5 -41 -11 -19 -24 -8 -35 31 -13 42
-16 45 -37 31 -11 -6 -11 -16 -3 -47 14 -50 14 -54 -3 -54 -14 0 -46 77 -46
110 0 11 20 23 63 37 92 31 94 31 112 -29z m-2745 3 c0 -18 37 -41 65 -41 8 0
15 -9 15 -20 0 -24 -2 -24 -69 -4 -52 15 -52 16 -45 47 3 18 8 35 11 40 7 12
23 -3 23 -22z m2903 -81 c3 -11 1 -18 -4 -14 -5 3 -9 12 -9 20 0 20 7 17 13
-6z m-2889 -19 c3 -4 1 -22 -4 -40 -7 -25 -6 -31 7 -31 11 0 14 6 10 23 -4 12
-2 29 3 37 9 13 11 13 20 0 15 -23 12 -67 -6 -84 -35 -35 -114 -5 -114 44 0
39 67 80 84 51z m2722 -66 c7 -33 7 -50 0 -60 -11 -15 -101 -37 -111 -27 -16
16 0 31 40 38 36 5 45 10 45 27 0 18 -5 19 -50 14 -44 -5 -50 -4 -50 12 0 14
12 21 53 28 28 6 54 11 57 12 3 0 10 -19 16 -44z m-2659 -88 c21 -20 9 -83
-17 -97 -17 -9 -20 -7 -20 8 0 10 5 23 11 29 13 13 5 43 -11 43 -7 0 -9 -8 -5
-21 10 -30 -21 -59 -61 -59 -48 0 -67 24 -58 74 3 22 8 44 10 47 6 11 136 -9
151 -24z m2658 -31 c13 -9 19 -27 20 -59 l2 -45 -65 -4 c-75 -3 -106 8 -110
41 -5 35 7 71 24 71 11 0 14 -9 12 -36 -2 -23 2 -39 9 -41 9 -3 11 4 7 25 -5
23 -1 33 17 46 29 20 59 21 84 2z m-3119 -89 c-11 -8 -30 -11 -45 -8 l-26 5
30 7 c51 11 61 10 41 -4z m279 -17 c0 -8 -8 -16 -17 -18 -13 -2 -18 3 -18 18
0 15 5 20 18 18 9 -2 17 -10 17 -18z m135 0 c0 -18 -7 -20 -60 -20 -53 0 -60
2 -60 20 0 18 7 20 60 20 53 0 60 -2 60 -20z m-400 6 c0 -3 -4 -8 -10 -11 -5
-3 -10 -1 -10 4 0 6 5 11 10 11 6 0 10 -2 10 -4z m3130 -72 c0 -11 -16 -14
-65 -14 -49 0 -65 3 -65 14 0 19 10 22 75 18 39 -3 55 -8 55 -18z m40 1 c0 -8
-7 -15 -15 -15 -8 0 -15 7 -15 15 0 8 7 15 15 15 8 0 15 -7 15 -15z m-2770
-12 c0 -18 -28 -53 -42 -53 -5 0 -16 -7 -24 -15 -14 -13 -10 -15 30 -15 35 0
46 -4 46 -15 0 -20 -10 -23 -97 -27 -68 -3 -73 -2 -73 17 0 13 12 28 33 40 62
37 64 45 8 45 -38 0 -51 4 -51 14 0 15 29 20 128 24 33 2 42 -1 42 -15z m2718
-42 c8 -1 10 -6 6 -13 -4 -7 -7 -26 -6 -44 3 -45 -17 -57 -78 -49 -37 5 -50
11 -50 23 0 14 9 16 51 13 45 -3 50 -1 47 15 -2 13 -17 22 -46 28 -37 8 -52
23 -37 38 3 3 26 1 53 -3 26 -4 53 -8 60 -8z m-38 -153 c35 -38 10 -98 -41
-98 -28 0 -29 1 -23 40 4 27 3 40 -5 40 -6 0 -11 -16 -11 -36 0 -49 -24 -40
-28 11 -3 29 1 43 14 52 27 20 71 16 94 -9z m-2990 -9 c0 -5 3 -8 8 -6 4 3 6
-15 5 -39 -1 -24 2 -44 7 -44 14 0 7 -79 -6 -84 -8 -3 -14 24 -19 82 -4 48
-12 90 -19 94 -7 5 -5 8 7 8 9 0 17 -5 17 -11z m350 -50 c10 -24 10 -33 -4
-54 -16 -24 -30 -29 -71 -25 -32 3 -45 20 -45 56 0 27 5 37 26 46 29 13 44 0
44 -39 0 -24 14 -31 25 -12 4 5 -1 19 -10 29 -9 10 -14 23 -11 29 11 16 33 2
46 -30z m-505 -13 c8 -7 11 -16 8 -19 -5 -6 -33 17 -33 27 0 10 11 7 25 -8z
m-53 -13 c-6 -2 -10 -9 -6 -14 3 -5 1 -9 -5 -9 -13 0 -22 15 -14 24 3 3 13 6
22 5 11 0 12 -2 3 -6z m18 -41 c0 -4 -9 -13 -21 -20 -19 -12 -19 -11 -9 8 10
19 30 28 30 12z m3142 -9 c20 -18 24 -63 6 -81 -7 -7 -27 -12 -46 -12 -27 0
-33 3 -28 16 17 44 19 67 5 62 -8 -3 -14 -13 -15 -24 -2 -46 -3 -47 -19 -34
-18 15 -19 29 -5 64 8 21 16 26 46 26 21 0 46 -7 56 -17z m-2574 -35 c2 -9
-11 -19 -38 -28 -27 -9 -40 -19 -40 -32 0 -22 16 -23 63 -3 32 13 36 13 41 -2
4 -9 5 -17 3 -19 -7 -8 -139 -54 -152 -54 -22 0 -18 31 5 37 23 6 24 7 8 32
-17 27 -3 50 44 71 47 21 62 21 66 -2z m-301 -24 c-3 -3 -12 -4 -19 -1 -8 3
-5 6 6 6 11 1 17 -2 13 -5z m2800 -56 c50 -21 65 -39 43 -53 -5 -3 -10 -15
-10 -26 0 -10 -3 -19 -7 -19 -16 0 -28 16 -28 35 0 13 -12 25 -32 35 -18 8
-33 23 -33 33 0 22 4 22 67 -5z m236 -55 c-3 -7 -10 -13 -15 -13 -6 0 -8 -7
-4 -15 3 -9 0 -15 -10 -15 -12 0 -13 4 -2 23 7 12 12 25 11 28 -1 3 4 6 12 6
7 0 11 -6 8 -14z m-2655 -31 c2 -6 -24 -25 -58 -42 -54 -27 -59 -33 -50 -50
11 -21 6 -40 -10 -40 -16 0 -71 118 -59 125 6 4 18 0 28 -9 17 -15 22 -14 72
8 56 26 70 27 77 8z m2362 8 c0 -5 -9 -14 -20 -20 -11 -6 -20 -18 -20 -27 0
-13 7 -10 29 11 44 42 79 26 72 -34 -2 -16 -37 -50 -52 -50 -16 0 -9 25 12 43
11 10 18 21 15 24 -3 4 -20 -7 -36 -22 -25 -24 -34 -27 -48 -19 -24 15 -27 62
-6 85 18 20 54 26 54 9z m280 -40 c0 -5 -7 -10 -15 -10 -8 0 -15 5 -15 10 0 6
7 10 15 10 8 0 15 -4 15 -10z m-2935 -59 c-3 -12 -12 -21 -19 -21 -7 0 -21 -7
-32 -15 -13 -10 -14 -13 -3 -10 22 8 37 -13 45 -61 4 -31 2 -45 -11 -58 -13
-13 -20 -14 -31 -5 -19 16 -18 32 6 52 24 20 26 43 3 51 -10 4 -25 -2 -40 -16
-21 -19 -26 -20 -34 -8 -8 12 -10 10 -6 -8 5 -19 3 -21 -9 -11 -13 11 -13 14
0 27 8 8 25 15 38 16 15 1 22 7 20 17 -1 9 5 22 13 29 8 7 15 9 15 5 0 -4 7
-2 15 5 8 7 12 17 8 23 -3 6 -1 7 5 3 7 -4 12 -2 12 5 0 7 3 10 6 6 3 -3 3
-15 -1 -26z m2665 -169 c25 -22 42 -43 39 -46 -4 -4 -56 35 -116 87 -61 52
-120 101 -133 110 -12 8 -19 20 -15 26 6 10 89 -55 225 -177z m183 166 c-4
-19 -3 -20 7 -8 10 13 11 13 8 0 -1 -8 3 -25 10 -36 10 -19 9 -21 -11 -20 -20
1 -22 -3 -20 -44 1 -35 -1 -40 -8 -22 -10 27 -15 28 -30 0 -10 -18 -9 -20 5
-15 10 4 15 3 11 -3 -3 -6 -14 -10 -23 -10 -19 -1 -63 -30 -44 -30 7 0 9 -7 5
-17 -6 -15 -7 -14 -13 3 -9 24 -1 46 13 37 6 -4 8 0 4 9 -3 9 11 40 33 74 22
33 40 66 40 75 0 14 8 29 16 29 1 0 0 -10 -3 -22z m-2898 -108 c-3 -5 -11 -10
-16 -10 -6 0 -7 5 -4 10 3 6 11 10 16 10 6 0 7 -4 4 -10z m575 -90 c22 -28 29
-46 25 -60 -4 -11 -2 -20 4 -20 21 0 11 -37 -18 -64 -36 -34 -54 -16 -20 20
29 31 17 45 -14 16 -48 -45 -52 -13 -5 35 23 24 29 36 21 44 -8 8 -22 3 -52
-22 -52 -41 -68 -28 -19 16 26 25 35 40 31 54 -8 33 13 24 47 -19z m1956 25
c4 -8 15 -15 26 -15 28 0 21 -50 -9 -61 -17 -6 -23 -5 -23 6 0 8 7 15 15 15 8
0 15 5 15 10 0 7 -6 7 -19 0 -11 -5 -29 -10 -40 -10 -28 0 -26 -12 6 -40 36
-31 12 -39 -26 -8 -17 13 -30 27 -30 31 -1 12 61 87 71 87 5 0 11 -7 14 -15z
m-2430 -17 c4 -7 4 -10 -1 -6 -4 4 -14 3 -22 -3 -8 -8 -13 -8 -13 -1 0 6 6 13
13 15 6 3 13 6 14 6 1 1 5 -5 9 -11z m2774 -14 c0 -2 -9 -4 -21 -4 -11 0 -18
4 -14 10 5 8 35 3 35 -6z m64 -9 c-4 -8 -15 -15 -26 -15 -17 0 -18 3 -8 15 7
8 19 15 26 15 8 0 11 -6 8 -15z m-2889 -15 c-3 -5 -1 -10 6 -10 7 0 10 -2 7
-5 -3 -3 -13 -2 -22 1 -14 5 -15 9 -4 15 17 11 20 11 13 -1z m2752 -22 c-3 -8
-6 -5 -6 6 -1 11 2 17 5 13 3 -3 4 -12 1 -19z m61 15 c-10 -2 -26 -2 -35 0
-10 3 -2 5 17 5 19 0 27 -2 18 -5z m32 -23 c0 -5 -19 -10 -42 -9 -37 1 -39 2
-18 9 36 12 60 12 60 0z m-435 -21 c4 -5 -1 -19 -11 -30 -9 -10 -12 -19 -7
-19 6 0 13 7 17 15 8 21 26 19 26 -4 0 -28 -24 -43 -57 -36 -21 5 -24 4 -13
-4 20 -14 1 -45 -30 -49 -27 -4 -50 21 -50 54 0 23 31 41 50 29 6 -3 10 4 10
18 0 13 3 27 7 30 10 11 51 8 58 -4z m444 -18 c7 -5 9 -11 5 -14 -5 -3 -15 1
-22 9 -14 16 -5 18 17 5z m96 -21 c3 -5 1 -10 -4 -10 -6 0 -11 5 -11 10 0 6 2
10 4 10 3 0 8 -4 11 -10z m49 -15 c4 -14 11 -25 16 -25 24 0 7 -26 -17 -27
-16 0 -20 1 -10 4 21 5 23 23 2 23 -9 0 -15 9 -15 25 0 14 4 25 9 25 5 0 12
-11 15 -25z m-2384 0 c6 -8 9 -23 5 -35 -7 -21 -29 -27 -40 -10 -3 6 -10 10
-16 10 -5 0 -9 -4 -9 -10 0 -5 6 -10 14 -10 8 0 18 -4 21 -10 3 -6 -5 -10 -19
-10 -32 0 -43 33 -22 65 18 28 47 32 66 10z m93 -76 c-2 -40 -1 -42 13 -25 7
11 14 23 14 28 0 4 7 8 15 8 23 0 18 -16 -17 -65 -44 -60 -63 -59 -54 1 l6 47
-21 -27 c-21 -27 -39 -34 -39 -16 0 18 64 99 75 96 6 -2 9 -23 8 -47z m1586
10 c16 -20 20 -34 14 -40 -7 -7 -17 -2 -31 15 -11 14 -23 26 -26 26 -12 0 -6
-24 11 -42 12 -13 13 -22 6 -29 -8 -8 -19 0 -38 24 -26 35 -26 36 -8 55 25 28
44 26 72 -9z m-114 1 c3 -5 -1 -10 -9 -10 -9 0 -16 5 -16 10 0 6 4 10 9 10 6
0 13 -4 16 -10z m-1385 -35 c0 -8 -4 -15 -10 -15 -5 0 -10 7 -10 15 0 8 5 15
10 15 6 0 10 -7 10 -15z m1424 -19 c17 -22 22 -37 15 -41 -6 -4 -11 -5 -13 -4
-1 2 -12 17 -24 33 -12 16 -22 33 -22 37 0 19 19 8 44 -25z m-30 -27 c19 -27
26 -49 22 -64 -7 -27 -41 -38 -57 -19 -9 11 -7 14 9 14 12 0 24 5 27 10 4 7
-3 8 -20 4 -18 -4 -32 -1 -47 12 -23 20 -23 21 -2 -31 12 -29 -16 -15 -32 16
-10 21 -19 28 -26 21 -7 -7 -6 -17 1 -30 13 -25 15 -55 2 -48 -5 3 -16 22 -26
43 -17 35 -17 37 1 50 11 8 29 12 42 10 16 -3 22 1 22 14 0 18 24 38 46 39 6
0 24 -18 38 -41z m-1411 25 c8 -9 -36 -74 -50 -74 -18 0 -16 5 10 45 22 35 29
40 40 29z m71 -58 c-1 -12 2 -13 16 -6 28 15 50 2 50 -31 0 -16 -4 -29 -10
-29 -5 0 -10 -7 -10 -15 0 -16 -27 -20 -49 -6 -8 6 -12 19 -9 35 6 30 1 28
-16 -6 -16 -32 -61 -36 -76 -8 -15 27 -3 41 14 17 7 -9 19 -17 27 -17 9 0 5 7
-9 18 -20 16 -21 21 -11 49 6 18 18 34 27 36 23 5 57 -17 56 -37z m1151 14 c3
-5 -5 -15 -19 -22 -36 -16 -33 -31 4 -23 34 8 43 -13 10 -22 -12 -3 -19 -11
-17 -17 4 -11 18 -12 46 -5 7 2 15 -1 17 -7 4 -9 -64 -49 -71 -42 -2 2 -14 27
-28 56 l-26 53 32 20 c36 22 43 23 52 9z m-980 -57 c-12 -48 -34 -93 -45 -93
-13 0 -7 25 18 82 20 43 37 51 27 11z m870 -24 c3 -24 6 -51 7 -59 6 -32 -16
-23 -26 10 l-11 35 -3 -42 c-3 -37 -7 -44 -29 -49 -30 -8 -53 15 -53 52 0 26
16 41 50 46 16 2 25 9 25 21 0 16 25 41 32 33 2 -1 5 -23 8 -47z m-906 25 c7
-6 -11 -24 -24 -24 -7 0 -16 -11 -19 -25 -4 -14 -13 -25 -22 -25 -9 0 -14 3
-12 8 2 4 10 24 18 45 11 30 18 36 35 31 11 -4 22 -8 24 -10z m-419 -19 c5 3
11 1 15 -5 3 -5 0 -10 -8 -10 -8 0 -20 -7 -27 -15 -12 -14 -15 -13 -35 5 -12
11 -25 18 -28 15 -4 -3 -2 1 4 8 9 9 12 9 16 0 4 -10 10 -9 26 2 13 9 23 11
25 5 2 -6 8 -8 12 -5z m-160 -15 c0 -5 -4 -10 -10 -10 -5 0 -10 5 -10 10 0 6
5 10 10 10 6 0 10 -4 10 -10z m674 -33 c-2 -49 -13 -61 -47 -48 -30 11 -36 38
-12 47 10 4 13 13 9 26 -5 17 -2 19 23 16 26 -3 28 -6 27 -41z m220 17 c9 -8
16 -20 16 -25 0 -12 -27 -12 -35 1 -7 12 -25 13 -25 2 0 -5 11 -15 25 -22 28
-15 33 -51 10 -70 -21 -18 -69 1 -73 28 -4 25 16 30 24 7 7 -16 34 -21 34 -6
0 5 -11 16 -25 25 -27 18 -32 45 -13 64 17 17 44 15 62 -4z m-689 -3 c-9 -8
-55 -9 -50 0 3 3 16 7 30 7 14 0 23 -3 20 -7z m540 -1 c26 -10 27 -15 8 -83
-8 -32 -25 -6 -18 30 5 26 3 34 -7 31 -7 -3 -15 -15 -18 -28 -3 -13 -11 -25
-18 -28 -10 -3 -12 5 -6 34 10 60 13 62 59 44z m500 -20 c16 0 26 -8 31 -22
l8 -23 6 24 c3 14 11 26 18 29 9 3 11 -10 6 -55 -7 -65 -26 -95 -46 -75 -10
10 -10 14 0 21 10 6 9 15 -3 44 -18 43 -35 48 -35 12 0 -14 5 -25 10 -25 6 0
10 -7 10 -15 0 -17 -2 -18 -24 -9 -9 4 -16 18 -16 33 0 15 -4 31 -9 37 -5 5
-5 19 2 34 8 21 11 22 14 8 3 -11 14 -18 28 -18z m-975 -14 c20 -25 2 -18 -28
10 -21 20 -22 24 -6 16 11 -6 26 -18 34 -26z m839 -31 c1 -39 -2 -65 -9 -65
-5 0 -11 9 -11 20 -1 11 -2 25 -3 32 -1 14 -49 19 -58 5 -3 -6 -4 -16 -1 -24
4 -10 9 -11 19 -2 17 14 29 6 21 -16 -8 -19 -41 -20 -56 -1 -32 38 9 103 49
78 28 -17 33 -15 26 13 -5 18 -2 25 7 25 10 0 15 -17 16 -65z m-124 -10 c0
-39 -1 -40 -35 -40 -31 0 -35 3 -38 28 -4 37 15 59 47 55 23 -3 26 -7 26 -43z
m206 18 c7 -20 5 -23 -16 -23 -14 0 -25 -5 -25 -10 0 -6 12 -8 28 -4 l27 5
-23 -20 c-38 -33 -72 -1 -58 55 5 20 12 25 33 22 16 -2 29 -12 34 -25z m-945
3 c8 -8 11 -17 6 -20 -4 -2 -13 4 -20 15 -14 22 -7 25 14 5z m52 -7 c-2 -6 3
-14 11 -17 8 -3 11 0 7 7 -10 15 -6 14 50 -14 27 -15 40 -23 29 -20 -15 4 -13
-1 10 -21 l30 -26 -40 23 c-22 12 -45 28 -51 36 -12 14 -28 18 -20 4 7 -11
-22 -23 -35 -15 -5 3 -7 10 -4 15 4 5 1 9 -6 9 -8 0 -8 4 1 15 15 18 21 19 18
4z m-68 -19 c0 -5 -5 -10 -11 -10 -5 0 -7 -4 -4 -10 3 -5 2 -10 -3 -10 -6 0
-13 7 -16 16 -3 8 -2 12 4 9 6 -3 10 -1 10 4 0 6 5 11 10 11 6 0 10 -4 10 -10z
m40 -20 c0 -5 -2 -10 -4 -10 -3 0 -8 5 -11 10 -3 6 -1 10 4 10 6 0 11 -4 11
-10z m1570 0 c0 -5 -4 -10 -10 -10 -5 0 -10 5 -10 10 0 6 5 10 10 10 6 0 10
-4 10 -10z m-1400 -20 c0 -5 3 -9 8 -8 4 1 20 -2 35 -7 20 -5 25 -11 18 -18
-7 -7 -16 -5 -29 6 -10 9 -21 15 -24 12 -3 -3 -11 1 -18 10 -8 10 -9 15 -1 15
6 0 11 -4 11 -10z m-170 -20 c0 -13 -7 -20 -20 -20 -13 0 -20 7 -20 20 0 13 7
20 20 20 13 0 20 -7 20 -20z m1580 -10 c0 -5 -5 -10 -11 -10 -5 0 -7 5 -4 10
3 6 8 10 11 10 2 0 4 -4 4 -10z m-315 -30 c4 -6 15 -10 25 -8 11 2 20 -1 21
-7 3 -16 -44 -35 -66 -28 -30 10 -67 5 -85 -12 -21 -19 -31 -19 -24 -1 3 8 13
17 22 20 10 2 -3 2 -28 0 -41 -4 -42 -3 -15 6 17 6 44 8 60 4 24 -4 27 -3 15
6 -12 9 -7 10 20 4 19 -3 38 -11 41 -16 3 -5 15 -5 30 0 22 9 20 10 -20 17
-30 5 -39 10 -30 16 18 12 26 11 34 -1z m312 4 c-3 -3 -12 -4 -19 -1 -8 3 -5
6 6 6 11 1 17 -2 13 -5z m-1567 -14 c0 -5 -4 -10 -10 -10 -5 0 -10 5 -10 10 0
6 5 10 10 10 6 0 10 -4 10 -10z m433 -18 c20 -2 37 -7 37 -11 0 -4 24 -7 53
-8 30 -1 71 -9 92 -17 39 -17 58 -21 38 -8 -6 4 68 7 165 6 106 -1 169 2 157
7 -13 6 1 7 35 3 43 -4 52 -3 40 6 -12 10 -10 11 10 6 14 -3 32 -6 39 -6 23 0
-1 -19 -37 -30 -20 -5 -30 -5 -27 1 4 5 1 9 -4 9 -6 0 -11 -4 -11 -9 0 -6 -31
-8 -72 -7 -40 2 -61 2 -45 -1 15 -2 27 -9 27 -14 0 -15 -46 -10 -60 6 -7 8
-22 14 -34 14 -20 -1 -20 -2 -1 -6 37 -9 41 -24 5 -18 -30 5 -29 3 10 -10 25
-8 53 -15 63 -15 9 0 17 -4 17 -10 0 -12 -43 -14 -54 -2 -4 4 -49 6 -99 4 -71
-3 -97 0 -112 12 -20 15 -20 15 2 16 12 0 25 -4 28 -10 3 -5 39 -9 78 -9 50 1
62 4 39 8 -18 3 -32 10 -32 16 1 5 -4 11 -11 14 -8 2 -10 -2 -6 -13 8 -19 -18
-23 -27 -3 -5 10 -7 10 -12 0 -3 -7 -10 -13 -15 -13 -6 0 -7 5 -3 11 5 9 -6
10 -39 7 -30 -4 -50 -1 -57 7 -5 6 -7 14 -5 17 3 3 -9 8 -27 12 -18 4 -36 2
-42 -4 -8 -8 -6 -9 7 -5 10 4 17 2 17 -4 0 -13 -49 -15 -69 -2 -10 6 -6 11 15
20 26 10 26 11 4 6 -14 -2 -46 2 -70 9 -26 8 -53 10 -65 5 -33 -13 -52 -8 -21
5 16 8 25 15 20 18 -5 3 -2 2 6 0 8 -3 32 -7 53 -10z m-455 -22 c19 -16 21
-23 13 -39 -6 -11 -11 -31 -11 -45 0 -16 -6 -26 -15 -26 -11 0 -15 12 -15 49
0 27 -3 56 -6 65 -8 21 6 20 34 -4z m-73 0 c3 -5 1 -10 -4 -10 -6 0 -11 5 -11
10 0 6 2 10 4 10 3 0 8 -4 11 -10z m553 -19 c9 -5 4 -8 -16 -7 -17 1 -28 4
-25 9 6 9 25 9 41 -2z m-538 -11 c0 -5 -2 -10 -4 -10 -3 0 -8 5 -11 10 -3 6
-1 10 4 10 6 0 11 -4 11 -10z m516 -61 c3 -5 0 -9 -6 -9 -6 0 -15 -10 -20 -22
-5 -14 -9 -17 -10 -8 -1 8 -3 25 -6 37 -3 17 0 20 16 16 11 -3 23 -9 26 -14z
m158 3 c7 -12 -4 -52 -15 -52 -5 0 -6 8 -2 18 5 14 3 13 -10 -3 -16 -20 -16
-20 -17 6 0 14 3 29 7 32 9 10 31 9 37 -1z m-117 -18 c-3 -3 -12 -4 -19 -1 -8
3 -5 6 6 6 11 1 17 -2 13 -5z m588 -81 c-4 -43 -12 -86 -17 -97 -5 -10 -8 -29
-5 -42 2 -14 0 -27 -4 -30 -5 -3 -9 0 -9 6 0 6 -4 8 -10 5 -6 -4 -10 7 -10 24
0 17 5 31 10 31 6 0 10 5 10 11 0 5 -4 8 -8 5 -4 -2 -13 -2 -18 2 -15 9 -26
72 -14 72 6 0 10 -5 10 -11 0 -5 5 -7 10 -4 7 4 9 -3 6 -19 -3 -18 0 -26 10
-26 11 0 13 14 10 70 -4 73 -2 80 22 80 12 0 13 -13 7 -77z m-1145 12 c0 -14
-4 -25 -9 -25 -4 0 -6 11 -3 25 2 14 6 25 8 25 2 0 4 -11 4 -25z m40 15 c0 -5
-5 -10 -11 -10 -5 0 -7 5 -4 10 3 6 8 10 11 10 2 0 4 -4 4 -10z m445 -20 c3
-5 1 -10 -4 -10 -6 0 -11 5 -11 10 0 6 2 10 4 10 3 0 8 -4 11 -10z m95 -86 c0
-68 -2 -76 -21 -81 -16 -5 -18 -8 -7 -15 9 -7 5 -8 -12 -4 -14 3 -30 6 -36 6
-7 0 -8 19 -2 63 5 34 7 72 5 85 -4 20 0 22 34 22 l39 0 0 -76z m-103 24 c-3
-8 -6 -5 -6 6 -1 11 2 17 5 13 3 -3 4 -12 1 -19z m503 -54 c0 -8 -4 -12 -10
-9 -5 3 -10 10 -10 16 0 5 5 9 10 9 6 0 10 -7 10 -16z"/>
<path d="M1437 3803 c3 -7 9 -10 14 -7 14 8 11 21 -5 21 -8 0 -12 -6 -9 -14z"/>
<path d="M2620 3740 c-8 -5 -10 -10 -5 -10 6 0 17 5 25 10 8 5 11 10 5 10 -5
0 -17 -5 -25 -10z"/>
<path d="M865 3550 c-7 -11 16 -50 29 -50 4 0 3 7 -4 15 -9 10 -9 15 -1 15 6
0 11 4 11 9 0 13 -28 22 -35 11z"/>
<path d="M2540 3426 c0 -2 7 -7 16 -10 8 -3 12 -2 9 4 -6 10 -25 14 -25 6z"/>
<path d="M1995 3370 c-12 -20 6 -51 28 -48 31 4 31 52 0 56 -11 2 -24 -2 -28
-8z"/>
<path d="M1627 3338 c-2 -7 0 -23 4 -36 10 -27 42 -26 47 1 7 34 -39 65 -51
35z"/>
<path d="M2495 3270 c-3 -5 1 -13 10 -16 22 -9 29 1 11 15 -10 8 -16 9 -21 1z"/>
<path d="M1016 3223 c-5 -11 -1 -13 17 -8 33 11 39 20 12 21 -13 1 -26 -5 -29
-13z"/>
<path d="M3150 2990 c0 -5 5 -10 11 -10 5 0 7 5 4 10 -3 6 -8 10 -11 10 -2 0
-4 -4 -4 -10z"/>
<path d="M3220 2901 c0 -5 7 -15 17 -22 15 -13 15 -12 4 9 -12 23 -21 28 -21
13z"/>
<path d="M445 3130 c-11 -12 -13 -20 -6 -20 7 0 9 -4 6 -10 -3 -5 0 -7 8 -4 8
3 15 16 15 30 0 29 0 29 -23 4z"/>
<path d="M1998 2903 c7 -3 16 -2 19 1 4 3 -2 6 -13 5 -11 0 -14 -3 -6 -6z"/>
<path d="M1660 2856 c0 -2 8 -10 18 -17 15 -13 16 -12 3 4 -13 16 -21 21 -21
13z"/>
<path d="M2148 2813 c7 -3 16 -2 19 1 4 3 -2 6 -13 5 -11 0 -14 -3 -6 -6z"/>
<path d="M1998 2803 c6 -2 18 -2 25 0 6 3 1 5 -13 5 -14 0 -19 -2 -12 -5z"/>
<path d="M1738 2783 c7 -3 16 -2 19 1 4 3 -2 6 -13 5 -11 0 -14 -3 -6 -6z"/>
<path d="M1641 2664 c0 -11 3 -14 6 -6 3 7 2 16 -1 19 -3 4 -6 -2 -5 -13z"/>
<path d="M1881 2594 c0 -11 3 -14 6 -6 3 7 2 16 -1 19 -3 4 -6 -2 -5 -13z"/>
<path d="M1910 2531 c-5 -11 -10 -33 -10 -50 0 -26 -4 -31 -24 -31 -19 0 -26
7 -31 29 -9 44 -29 56 -73 45 -36 -9 -37 -10 -42 -67 -3 -31 -8 -58 -12 -60
-4 -1 -25 15 -47 37 l-40 39 -33 -20 c-27 -16 -32 -25 -30 -49 2 -16 8 -33 13
-38 15 -16 10 -35 -11 -46 -16 -9 -26 -7 -47 9 -34 28 -64 26 -92 -3 l-23 -24
28 -42 c27 -41 27 -41 7 -61 -16 -16 -24 -18 -47 -9 -46 17 -72 12 -84 -15
-18 -39 -15 -51 19 -78 24 -19 30 -29 24 -46 -5 -18 -14 -21 -61 -21 -50 0
-55 -2 -65 -27 -17 -46 -8 -67 39 -83 56 -19 57 -45 1 -54 -81 -13 -82 -15
-74 -130 19 -276 124 -481 318 -625 133 -98 292 -146 472 -144 358 4 631 234
720 605 8 35 18 113 22 174 7 126 8 124 -84 124 -61 0 -55 23 12 50 31 12 58
26 61 31 3 5 -1 27 -7 50 l-13 41 -45 -7 c-25 -3 -53 -8 -62 -11 -27 -8 -32
26 -7 46 76 60 72 53 54 89 -22 41 -34 45 -79 26 -20 -8 -43 -15 -51 -15 -26
0 -27 32 -1 70 31 45 31 51 0 80 -26 25 -39 23 -90 -14 -18 -13 -22 -13 -42 3
-20 16 -21 22 -11 54 14 44 7 62 -31 81 -29 16 -31 15 -59 -15 -22 -24 -34
-29 -54 -24 -23 6 -25 11 -24 50 1 51 -1 54 -48 65 -34 7 -36 6 -53 -31 -14
-31 -23 -39 -45 -39 -25 0 -28 4 -28 31 0 51 -16 69 -60 69 -29 0 -42 -5 -50
-19z m94 -43 c6 -36 13 -48 26 -48 10 0 25 -3 34 -6 10 -4 19 5 29 29 18 43
29 49 63 41 24 -6 26 -10 21 -50 -5 -47 2 -58 44 -69 21 -5 32 0 57 24 27 28
33 30 56 19 30 -13 31 -17 11 -65 -19 -44 -20 -38 16 -63 l30 -22 44 23 c43
23 44 23 64 5 19 -17 19 -21 6 -46 -8 -16 -22 -35 -30 -44 -15 -14 -15 -18 2
-41 21 -28 37 -30 73 -10 37 21 55 18 68 -10 16 -34 18 -29 -32 -65 -42 -30
-44 -34 -34 -62 8 -21 15 -27 27 -22 9 3 37 9 64 11 38 5 47 3 47 -10 0 -8 3
-22 6 -31 4 -11 -10 -22 -55 -43 -42 -19 -61 -34 -61 -46 0 -20 8 -24 68 -31
51 -7 62 -12 62 -32 0 -11 -19 -14 -94 -14 l-93 0 -7 50 c-19 142 -84 272
-185 367 -240 228 -599 197 -794 -67 -53 -72 -109 -208 -132 -317 l-7 -33 -95
0 c-71 0 -94 3 -91 13 3 6 28 16 56 21 39 7 52 14 52 27 0 10 3 24 6 33 4 9 1
16 -6 16 -7 0 -27 7 -46 16 -24 12 -34 23 -34 40 0 31 16 39 71 36 45 -3 47
-2 58 30 11 31 10 34 -26 64 -37 31 -37 32 -20 57 15 23 20 25 49 16 18 -6 40
-12 48 -15 8 -2 25 10 38 26 l23 30 -25 33 c-31 41 -32 49 -7 71 20 19 44 13
83 -21 18 -16 43 -8 67 21 10 12 9 21 -3 45 -22 42 -20 55 10 72 25 13 28 12
58 -22 25 -27 38 -33 57 -29 21 5 24 12 26 50 1 25 2 51 2 58 1 9 12 12 33 10
27 -2 36 -10 51 -42 15 -31 22 -37 40 -32 12 3 27 6 32 6 6 0 11 19 11 41 2
45 16 61 54 57 21 -3 26 -10 34 -50z m50 -131 c33 -7 61 -17 63 -24 6 -17 -46
-73 -84 -88 -69 -29 -121 -18 -180 38 -45 42 -43 64 5 72 20 4 42 8 47 10 22
7 93 3 149 -8z m-269 -68 c0 -8 8 -17 18 -21 9 -4 17 -14 17 -23 0 -8 6 -15
14 -15 8 0 17 -7 20 -16 4 -10 13 -13 25 -9 12 3 21 0 25 -10 4 -11 13 -14 31
-9 17 4 25 2 25 -6 0 -10 5 -9 18 2 9 9 23 13 30 11 7 -3 19 0 27 7 8 6 19 9
25 5 5 -3 13 0 16 8 3 8 14 17 25 20 10 3 19 12 19 21 0 9 7 16 15 16 8 0 15
9 15 20 0 55 135 -19 219 -118 81 -98 141 -269 141 -403 0 -96 -47 -139 -151
-139 -42 0 -79 12 -183 57 -127 56 -133 57 -223 58 -91 0 -91 0 -193 -53 -91
-48 -109 -54 -165 -54 -123 -1 -185 43 -185 132 0 61 41 207 81 286 53 107
164 225 239 255 21 9 55 -5 55 -22z m-18 -819 c86 -22 152 -50 175 -73 15 -16
23 -14 105 27 108 54 198 75 221 52 12 -11 13 -18 4 -29 -6 -7 -19 -47 -27
-88 -9 -40 -22 -84 -31 -96 -21 -32 -71 -30 -142 7 -89 46 -113 70 -71 70 11
0 17 5 14 10 -3 6 -1 10 6 10 7 0 10 2 8 5 -3 2 -32 -9 -66 -25 -87 -42 -204
-74 -236 -66 -25 6 -27 10 -27 66 0 52 -4 64 -30 93 -16 19 -30 40 -30 46 0
16 45 13 127 -9z"/>
<path d="M1648 2124 c4 -21 0 -24 -23 -24 l-27 0 7 -62 c3 -35 7 -69 7 -75 1
-7 5 -13 10 -13 5 0 2 -7 -6 -16 -9 -8 -20 -12 -26 -9 -5 3 -10 1 -10 -5 0 -8
9 -10 24 -6 14 3 28 2 31 -4 3 -5 1 -10 -5 -10 -20 0 -42 -28 -29 -36 8 -4 4
-11 -11 -19 l-23 -13 21 -6 c12 -4 22 -12 22 -17 0 -5 6 -9 14 -9 8 0 16 -6
19 -12 2 -7 8 -10 12 -6 10 9 -15 34 -45 43 -19 6 -21 9 -7 16 17 10 47 2 47
-12 0 -4 7 -6 15 -3 8 4 15 10 15 16 0 5 -4 6 -10 3 -5 -3 -18 -1 -27 4 -10 6
-13 11 -6 11 8 0 11 12 8 32 -2 18 1 36 8 41 9 7 9 10 0 14 -7 2 -13 9 -13 14
0 6 5 7 10 4 6 -4 10 20 10 64 0 38 4 72 10 76 12 7 3 32 -14 38 -9 4 -11 -2
-8 -19z m-13 -254 c-3 -5 -10 -10 -16 -10 -5 0 -9 5 -9 10 0 6 7 10 16 10 8 0
12 -4 9 -10z"/>
<path d="M2250 2122 c0 -10 4 -22 10 -28 5 -5 10 -31 11 -57 2 -31 8 -51 18
-58 12 -8 10 -9 -9 -4 l-25 7 27 -19 c26 -18 27 -20 10 -37 -16 -18 -16 -19 1
-12 13 4 17 2 14 -6 -2 -7 -11 -12 -18 -10 -11 3 -12 1 -2 -9 11 -10 16 -9 27
6 11 15 11 22 3 27 -11 7 -2 12 16 9 4 0 7 4 7 9 0 6 -7 10 -15 10 -18 0 -19
11 -2 29 6 8 8 11 2 9 -5 -3 -16 1 -24 9 -12 13 -11 14 6 9 19 -6 20 -3 16 33
-3 21 0 49 7 60 7 14 7 21 0 21 -5 0 -10 -4 -10 -10 0 -5 -11 -10 -25 -10 -18
0 -25 5 -25 20 0 11 -4 20 -10 20 -5 0 -10 -8 -10 -18z"/>
<path d="M2263 1939 c-1 -12 3 -16 13 -12 18 6 18 19 1 26 -7 3 -13 -3 -14
-14z"/>
<path d="M1661 1894 c0 -11 3 -14 6 -6 3 7 2 16 -1 19 -3 4 -6 -2 -5 -13z"/>
<path d="M1571 1874 c0 -11 3 -14 6 -6 3 7 2 16 -1 19 -3 4 -6 -2 -5 -13z"/>
<path d="M2251 1864 c0 -11 3 -14 6 -6 3 7 2 16 -1 19 -3 4 -6 -2 -5 -13z"/>
<path d="M2320 1870 c0 -8 -10 -10 -27 -6 -20 5 -24 4 -13 -3 12 -8 10 -12
-10 -19 l-24 -9 23 -13 c19 -10 21 -14 10 -21 -20 -13 -27 -11 -32 9 -4 16 -5
16 -6 -1 -1 -22 25 -33 43 -18 7 6 21 9 30 5 21 -8 10 -25 -12 -17 -9 3 -14 3
-10 -2 4 -4 4 -13 -1 -19 -6 -7 -2 -11 14 -11 13 0 21 3 18 8 -2 4 5 7 17 7
l21 0 -21 23 -21 22 20 14 c12 7 21 20 21 28 0 9 -8 5 -25 -11 -14 -14 -32
-23 -40 -20 -26 11 -16 28 15 26 12 0 29 27 20 33 -6 3 -10 1 -10 -5z"/>
<path d="M1798 1803 c12 -2 32 -2 45 0 12 2 2 4 -23 4 -25 0 -35 -2 -22 -4z"/>
<path d="M2078 1803 c12 -2 30 -2 40 0 9 3 -1 5 -23 4 -22 0 -30 -2 -17 -4z"/>
<path d="M1586 1792 c-4 -7 -4 -12 1 -13 4 0 -1 -4 -12 -9 -19 -8 -19 -9 2 -9
12 -1 28 -4 37 -7 11 -4 16 -1 16 10 0 9 -6 16 -14 16 -8 0 -16 5 -18 12 -3 9
-6 9 -12 0z"/>
<path d="M2103 1393 c9 -2 23 -2 30 0 6 3 -1 5 -18 5 -16 0 -22 -2 -12 -5z"/>
<path d="M1731 1369 c-1 -35 30 -62 66 -56 l28 4 -31 2 c-35 1 -50 14 -57 51
l-4 25 -2 -26z"/>
<path d="M2050 1380 c-8 -5 -10 -10 -5 -10 6 0 17 5 25 10 8 5 11 10 5 10 -5
0 -17 -5 -25 -10z"/>
<path d="M1895 1349 c-16 -10 -25 -19 -19 -19 7 0 22 9 35 20 30 24 23 24 -16
-1z"/>
<path d="M2825 3010 c-3 -6 1 -13 10 -16 19 -8 30 0 20 15 -8 14 -22 14 -30 1z"/>
<path d="M572 2689 c2 -6 8 -10 13 -10 5 0 11 4 13 10 2 6 -4 11 -13 11 -9 0
-15 -5 -13 -11z"/>
<path d="M511 2621 c-16 -10 -23 -68 -10 -77 5 -3 9 3 10 13 0 16 1 16 9 -2
12 -28 12 -2 0 30 -9 24 -8 25 10 15 22 -12 23 -10 14 14 -7 18 -13 19 -33 7z"/>
<path d="M3130 2631 c0 -12 6 -21 15 -21 8 0 15 4 15 9 0 5 -7 14 -15 21 -13
10 -15 9 -15 -9z"/>
<path d="M725 2550 c-4 -6 -3 -16 3 -22 6 -6 12 -6 17 2 4 6 3 16 -3 22 -6 6
-12 6 -17 -2z"/>
<path d="M597 2273 c-10 -9 -9 -23 2 -23 5 0 11 7 15 15 5 15 -5 20 -17 8z"/>
<path d="M583 2143 c-7 -2 -13 -13 -13 -24 0 -14 7 -19 29 -19 35 0 48 25 21
40 -10 5 -20 10 -22 9 -2 0 -9 -3 -15 -6z"/>
<path d="M3294 2085 c-9 -24 10 -39 41 -31 18 5 25 12 23 24 -4 23 -56 29 -64
7z"/>
<path d="M3300 1705 c0 -9 5 -15 11 -13 6 2 11 8 11 13 0 5 -5 11 -11 13 -6 2
-11 -4 -11 -13z"/>
<path d="M605 1670 c-7 -12 2 -30 16 -30 5 0 9 9 9 20 0 21 -15 27 -25 10z"/>
<path d="M3266 1574 c-9 -22 -8 -24 9 -24 8 0 15 6 15 14 0 22 -17 28 -24 10z"/>
<path d="M491 1208 c0 -10 -1 -21 0 -25 0 -4 -8 -10 -18 -14 -17 -7 -17 -8 0
-8 20 -1 31 19 24 46 -4 17 -5 17 -6 1z"/>
<path d="M3351 1278 c-1 -10 -5 -18 -10 -18 -5 0 -14 -13 -21 -30 -7 -16 -16
-30 -20 -30 -4 0 -10 -7 -13 -14 -10 -26 19 -7 32 20 6 15 16 22 23 18 7 -4 8
-3 4 5 -4 6 -2 18 4 26 7 8 10 20 7 27 -4 8 -6 7 -6 -4z"/>
<path d="M2880 1019 c0 -5 5 -7 10 -4 6 3 10 8 10 11 0 2 -4 4 -10 4 -5 0 -10
-5 -10 -11z"/>
<path d="M2827 973 c-4 -3 -7 -11 -7 -17 0 -6 5 -5 12 2 6 6 9 14 7 17 -3 3
-9 2 -12 -2z"/>
<path d="M2845 940 c-3 -5 -1 -10 4 -10 6 0 11 5 11 10 0 6 -2 10 -4 10 -3 0
-8 -4 -11 -10z"/>
<path d="M1100 970 c0 -5 5 -10 11 -10 5 0 7 5 4 10 -3 6 -8 10 -11 10 -2 0
-4 -4 -4 -10z"/>
<path d="M2647 844 c-3 -4 -2 -16 4 -26 13 -24 35 -9 26 16 -7 17 -19 21 -30
10z"/>
<path d="M1303 804 c-9 -25 13 -40 26 -16 10 19 6 32 -11 32 -5 0 -11 -7 -15
-16z"/>
<path d="M1395 770 c3 -5 8 -10 11 -10 2 0 4 5 4 10 0 6 -5 10 -11 10 -5 0 -7
-4 -4 -10z"/>
<path d="M1380 740 c0 -5 5 -10 10 -10 6 0 10 5 10 10 0 6 -4 10 -10 10 -5 0
-10 -4 -10 -10z"/>
<path d="M2316 701 c-9 -14 4 -41 20 -41 8 0 14 6 14 14 0 18 -26 40 -34 27z"/>
<path d="M1040 730 c-13 -8 -12 -10 3 -10 9 0 17 5 17 10 0 12 -1 12 -20 0z"/>
<path d="M1560 710 c0 -5 5 -10 10 -10 6 0 10 5 10 10 0 6 -4 10 -10 10 -5 0
-10 -4 -10 -10z"/>
<path d="M1545 680 c-3 -5 1 -10 9 -10 9 0 16 5 16 10 0 6 -4 10 -9 10 -6 0
-13 -4 -16 -10z"/>
<path d="M1856 643 c-9 -22 10 -41 25 -26 13 13 5 43 -10 43 -5 0 -12 -8 -15
-17z"/>
<path d="M2070 650 c0 -5 5 -10 10 -10 6 0 10 5 10 10 0 6 -4 10 -10 10 -5 0
-10 -4 -10 -10z"/>
<path d="M2221 164 c0 -11 3 -14 6 -6 3 7 2 16 -1 19 -3 4 -6 -2 -5 -13z"/>
<path d="M1640 175 c0 -19 5 -35 10 -35 6 0 10 16 10 35 0 19 -4 35 -10 35 -5
0 -10 -16 -10 -35z"/>
<path d="M2536 3812 c-2 -4 4 -8 14 -8 10 0 16 4 14 8 -3 4 -9 8 -14 8 -5 0
-11 -4 -14 -8z"/>
<path d="M2490 3803 c0 -15 19 -37 26 -31 3 4 -1 14 -10 23 -9 9 -16 13 -16 8z"/>
<path d="M1312 3785 c-7 -8 -9 -15 -4 -15 5 0 15 7 22 15 16 19 -1 19 -18 0z"/>
<path d="M2640 3790 c8 -5 20 -10 25 -10 6 0 3 5 -5 10 -8 5 -19 10 -25 10 -5
0 -3 -5 5 -10z"/>
<path d="M2460 3771 c-6 -12 -7 -21 -1 -21 10 0 24 30 17 37 -2 3 -9 -5 -16
-16z"/>
<path d="M1556 3727 c3 -10 9 -15 12 -12 3 3 0 11 -7 18 -10 9 -11 8 -5 -6z"/>
<path d="M1306 3653 c-6 -14 -5 -15 5 -6 7 7 10 15 7 18 -3 3 -9 -2 -12 -12z"/>
<path d="M2121 3654 c0 -11 3 -14 6 -6 3 7 2 16 -1 19 -3 4 -6 -2 -5 -13z"/>
<path d="M1580 3651 c0 -6 4 -13 10 -16 6 -3 7 1 4 9 -7 18 -14 21 -14 7z"/>
<path d="M2405 3630 c3 -5 15 -10 26 -10 10 0 19 5 19 10 0 6 -12 10 -26 10
-14 0 -23 -4 -19 -10z"/>
<path d="M1301 3614 c0 -11 3 -14 6 -6 3 7 2 16 -1 19 -3 4 -6 -2 -5 -13z"/>
<path d="M1316 3574 c-4 -9 -4 -19 -1 -22 3 -3 5 0 5 7 0 7 4 9 10 6 6 -3 7 1
4 9 -8 20 -10 20 -18 0z"/>
<path d="M2350 3575 c-7 -9 -10 -18 -7 -21 3 -3 10 4 17 15 13 25 8 27 -10 6z"/>
<path d="M3020 3580 c-8 -5 -11 -10 -6 -10 5 0 1 -9 -9 -20 -20 -22 -40 -27
-29 -7 4 6 -2 3 -14 -7 -12 -11 -20 -22 -17 -25 4 -3 10 1 14 8 7 11 9 11 13
0 4 -10 11 -7 27 11 l22 25 -7 -24 c-7 -25 8 -41 39 -41 11 0 15 4 11 12 -5 8
-2 9 9 5 19 -7 37 19 30 43 -4 12 -2 12 5 2 5 -7 7 -24 4 -38 -3 -18 0 -24 14
-24 11 0 15 4 9 8 -11 8 -18 32 -9 32 3 0 12 -7 20 -15 9 -8 12 -15 8 -15 -4
0 1 -9 11 -20 10 -11 15 -23 11 -27 -4 -5 -12 0 -18 10 -7 14 -13 16 -24 6 -7
-6 -12 -14 -9 -18 2 -4 -2 -32 -10 -62 -10 -37 -11 -57 -4 -64 7 -6 9 -6 8 0
-2 6 1 21 5 34 6 18 10 21 17 10 6 -10 9 -7 9 11 1 31 26 67 33 48 3 -7 5 -2
4 12 0 14 -8 34 -16 44 -15 18 -15 19 4 12 11 -4 2 8 -20 27 -22 19 -44 35
-50 36 -5 1 -19 10 -29 19 -11 9 -16 12 -12 5 4 -7 -2 -16 -13 -22 -28 -16
-33 -14 -21 9 12 23 11 24 -10 10z m66 -48 c3 -16 0 -20 -11 -15 -12 4 -13 9
-4 19 14 17 -2 19 -19 2 -8 -8 -12 -9 -12 -1 0 12 19 23 34 19 5 -1 11 -12 12
-24z m-51 -12 c3 -5 1 -10 -4 -10 -6 0 -11 5 -11 10 0 6 2 10 4 10 3 0 8 -4
11 -10z"/>
<path d="M2150 3569 c0 -5 5 -7 10 -4 6 3 10 8 10 11 0 2 -4 4 -10 4 -5 0 -10
-5 -10 -11z"/>
<path d="M2364 3548 c-15 -28 -16 -29 -29 -11 -13 16 -14 15 -11 -12 5 -42 5
-42 16 -25 8 13 10 12 10 -2 0 -28 28 -21 45 11 8 16 20 31 27 34 10 4 10 7 1
18 -22 23 -43 18 -59 -13z m24 -26 c-7 -18 -16 -32 -21 -32 -4 0 -7 3 -5 8 32
67 47 81 26 24z"/>
<path d="M1705 3560 c11 -5 27 -9 35 -9 9 0 8 4 -5 9 -11 5 -27 9 -35 9 -9 0
-8 -4 5 -9z"/>
<path d="M1600 3540 c0 -17 5 -19 33 -13 39 7 41 9 32 22 -3 6 -19 11 -36 11
-22 0 -29 -5 -29 -20z"/>
<path d="M2630 3550 c0 -5 5 -10 10 -10 6 0 10 5 10 10 0 6 -4 10 -10 10 -5 0
-10 -4 -10 -10z"/>
<path d="M1324 3518 c3 -13 6 -30 6 -38 1 -12 3 -11 11 2 7 12 6 24 -1 38 -14
27 -24 25 -16 -2z"/>
<path d="M2644 3512 c-15 -9 -12 -55 4 -58 7 -1 8 0 3 2 -5 3 -6 17 -1 35 5
16 8 29 7 29 -1 0 -7 -4 -13 -8z"/>
<path d="M2402 3498 c6 -18 28 -21 28 -4 0 9 -7 16 -16 16 -9 0 -14 -5 -12
-12z"/>
<path d="M2896 3473 c-6 -14 -5 -15 5 -6 7 7 10 15 7 18 -3 3 -9 -2 -12 -12z"/>
<path d="M1328 3453 c6 -2 10 -9 6 -14 -3 -5 -13 -5 -24 1 -27 14 -36 -6 -14
-31 9 -10 21 -19 26 -19 5 0 2 7 -7 16 -9 9 -13 19 -10 22 3 4 10 1 14 -6 6
-10 10 -10 20 2 14 17 7 36 -12 35 -9 0 -8 -2 1 -6z"/>
<path d="M2795 3330 c-3 -5 -1 -10 5 -10 7 0 10 -7 6 -15 -5 -13 -2 -14 15 -4
11 6 19 12 17 13 -1 1 -10 7 -20 14 -11 9 -18 10 -23 2z"/>
<path d="M3064 3269 c-3 -6 -1 -16 6 -22 10 -9 11 -9 6 0 -3 6 2 16 11 22 16
9 16 10 1 11 -9 0 -20 -5 -24 -11z"/>
<path d="M900 3219 c0 -5 5 -7 10 -4 6 3 10 8 10 11 0 2 -4 4 -10 4 -5 0 -10
-5 -10 -11z"/>
<path d="M3417 3213 c-12 -3 -16 -10 -13 -20 5 -13 4 -14 -9 -3 -11 9 -15 9
-15 1 0 -7 -5 -9 -12 -5 -6 4 -8 3 -5 -3 4 -6 20 -9 37 -7 16 2 30 -1 30 -6 0
-16 27 -11 34 6 4 12 1 14 -13 9 -11 -3 -22 -1 -26 4 -7 12 44 9 63 -3 8 -5
10 -1 6 8 -3 9 -12 16 -19 16 -7 0 -19 2 -27 4 -7 2 -21 2 -31 -1z"/>
<path d="M2925 3200 c3 -5 8 -10 11 -10 2 0 4 5 4 10 0 6 -5 10 -11 10 -5 0
-7 -4 -4 -10z"/>
<path d="M654 3172 c3 -6 1 -12 -5 -14 -7 -2 0 -12 15 -21 14 -10 26 -13 26
-7 0 5 -6 10 -12 10 -10 0 -10 2 -1 8 9 6 6 11 -8 21 -12 7 -18 8 -15 3z"/>
<path d="M3466 3164 c-3 -8 -12 -14 -21 -14 -20 0 -19 -10 3 -26 16 -13 16
-13 -3 -14 l-20 -1 20 -9 c24 -10 42 4 29 23 -5 7 -2 5 8 -5 24 -26 33 -22 14
7 -23 35 -20 43 5 11 11 -14 25 -24 30 -21 5 4 9 1 9 -4 0 -10 -17 -15 -47
-14 -16 1 -16 3 -2 -36 7 -19 17 -30 24 -27 7 2 18 -1 25 -7 10 -9 11 -9 6 1
-11 19 -15 62 -6 67 5 3 7 -6 5 -20 -3 -27 9 -34 19 -10 3 8 0 15 -6 15 -6 0
-8 3 -5 6 10 11 -13 45 -25 38 -8 -5 -9 -1 -5 10 4 10 3 15 -3 11 -6 -3 -13 0
-16 9 -8 21 -31 27 -38 10z"/>
<path d="M3333 3154 c-17 -13 -17 -14 1 -7 15 5 17 3 11 -7 -6 -10 -4 -12 9
-7 10 4 24 7 32 7 24 0 15 17 -11 22 -14 3 -33 -1 -42 -8z"/>
<path d="M3360 3120 c0 -5 9 -10 20 -10 11 0 20 5 20 10 0 6 -9 10 -20 10 -11
0 -20 -4 -20 -10z"/>
<path d="M896 3103 c-6 -14 -5 -15 5 -6 7 7 10 15 7 18 -3 3 -9 -2 -12 -12z"/>
<path d="M3170 3080 c0 -5 5 -10 10 -10 6 0 10 5 10 10 0 6 -4 10 -10 10 -5 0
-10 -4 -10 -10z"/>
<path d="M741 2993 c-1 -6 2 -19 5 -27 5 -13 9 -14 20 -5 8 6 14 19 14 28 -1
13 -3 12 -12 -4 -11 -19 -11 -19 -19 0 -4 11 -8 15 -8 8z"/>
<path d="M484 2979 c-3 -6 3 -21 15 -33 18 -17 21 -17 15 -3 -3 9 -11 17 -18
17 -7 0 -6 4 3 9 8 5 9 11 3 15 -6 3 -14 1 -18 -5z"/>
<path d="M3476 2964 c-8 -22 -4 -25 11 -9 7 8 9 16 4 19 -5 3 -12 -1 -15 -10z"/>
<path d="M580 2849 c0 -5 5 -7 10 -4 6 3 10 8 10 11 0 2 -4 4 -10 4 -5 0 -10
-5 -10 -11z"/>
<path d="M185 2741 c5 -18 4 -22 -6 -16 -12 7 -12 5 -1 -6 11 -12 14 -12 23 1
8 11 9 10 4 -8 -5 -17 -3 -22 7 -21 7 2 23 -2 36 -9 12 -7 22 -8 22 -3 0 10
-38 27 -52 23 -4 -1 -5 5 -1 14 4 11 8 12 13 4 6 -9 13 -9 28 -1 11 6 27 11
34 11 7 -1 0 -7 -17 -14 -29 -12 -29 -13 -7 -18 12 -3 20 -3 17 2 -6 10 24 22
37 14 6 -4 14 0 19 7 5 8 3 17 -4 21 -21 13 -30 9 -17 -8 12 -13 10 -14 -14
-3 -19 9 -23 15 -14 21 11 6 11 8 0 8 -7 0 -15 -6 -18 -14 -3 -8 -12 -17 -21
-20 -11 -4 -13 -2 -9 9 4 13 2 14 -14 5 -14 -8 -23 -6 -36 7 -16 16 -16 16 -9
-6z"/>
<path d="M3678 2723 c-16 -2 -28 -8 -28 -13 0 -5 14 -5 31 0 18 5 36 7 40 4 5
-3 17 0 26 5 15 9 13 10 -12 9 -16 0 -42 -3 -57 -5z"/>
<path d="M350 2710 c0 -5 4 -10 9 -10 6 0 13 5 16 10 3 6 -1 10 -9 10 -9 0
-16 -4 -16 -10z"/>
<path d="M167 2699 c7 -7 15 -10 18 -7 3 3 -2 9 -12 12 -14 6 -15 5 -6 -5z"/>
<path d="M466 2701 c-4 -5 3 -7 14 -4 23 6 26 13 6 13 -8 0 -17 -4 -20 -9z"/>
<path d="M3610 2700 c8 -5 20 -10 25 -10 6 0 3 5 -5 10 -8 5 -19 10 -25 10 -5
0 -3 -5 5 -10z"/>
<path d="M3730 2696 c0 -9 39 -13 51 -5 10 6 4 9 -18 9 -18 0 -33 -2 -33 -4z"/>
<path d="M143 2649 c-7 -18 -11 -35 -8 -37 6 -6 27 48 23 60 -2 5 -9 -6 -15
-23z"/>
<path d="M3401 2605 c0 -6 9 -28 20 -50 16 -34 18 -36 14 -11 -6 28 -36 81
-34 61z"/>
<path d="M180 2590 c20 -13 33 -13 25 0 -3 6 -14 10 -23 10 -15 0 -15 -2 -2
-10z"/>
<path d="M3791 2544 c0 -11 3 -14 6 -6 3 7 2 16 -1 19 -3 4 -6 -2 -5 -13z"/>
<path d="M3765 2541 c-3 -5 -1 -12 5 -16 5 -3 10 1 10 9 0 18 -6 21 -15 7z"/>
<path d="M3703 2500 c-3 -11 -9 -20 -14 -20 -5 0 -9 -5 -9 -10 0 -6 8 -5 20 2
10 7 17 14 15 17 -3 2 0 10 6 18 9 10 8 13 -1 13 -6 0 -14 -9 -17 -20z"/>
<path d="M3480 2440 c0 -5 5 -10 10 -10 6 0 10 5 10 10 0 6 -4 10 -10 10 -5 0
-10 -4 -10 -10z"/>
<path d="M444 2426 c11 -9 24 -16 30 -16 12 0 7 5 -24 19 -24 11 -24 11 -6 -3z"/>
<path d="M3492 2305 c0 -11 4 -31 8 -45 l8 -25 0 25 c0 14 -3 34 -8 45 l-9 20
1 -20z"/>
<path d="M3556 2295 c-11 -30 -7 -62 9 -62 16 0 21 43 6 65 -7 11 -10 10 -15
-3z m11 -37 c-3 -7 -5 -2 -5 12 0 14 2 19 5 13 2 -7 2 -19 0 -25z"/>
<path d="M411 2274 c0 -11 3 -14 6 -6 3 7 2 16 -1 19 -3 4 -6 -2 -5 -13z"/>
<path d="M3534 2205 c-6 -13 -8 -14 -15 -3 -7 11 -9 11 -9 0 0 -8 9 -16 20
-19 11 -3 20 -9 20 -14 0 -5 -4 -8 -9 -6 -9 2 -11 -3 -11 -22 0 -14 48 -19 61
-7 9 8 10 8 6 0 -4 -7 -1 -14 7 -17 8 -3 16 -16 18 -28 4 -31 33 -47 56 -33
20 13 102 17 102 5 0 -3 -19 -7 -42 -8 -22 -1 -46 -7 -52 -13 -5 -5 -41 -10
-79 -10 -60 0 -68 -2 -65 -17 4 -19 27 -25 97 -23 36 1 42 -2 37 -15 -3 -9 -2
-13 3 -10 5 3 12 1 16 -5 3 -5 -3 -10 -14 -10 -11 0 -23 5 -26 10 -3 6 -14 10
-23 9 -36 -1 34 -23 78 -24 25 0 54 -4 65 -9 13 -5 11 -2 -4 7 -18 11 -20 16
-10 20 8 3 1 4 -16 3 -16 -2 -22 -1 -12 1 11 3 18 13 17 26 -4 50 -1 58 19 48
10 -6 22 -7 27 -3 5 4 -2 -5 -15 -20 -14 -16 -23 -29 -20 -29 2 -1 34 -2 71
-3 l67 -2 -5 81 c-5 86 -11 100 -40 92 -16 -4 -15 -5 4 -6 20 -1 22 -6 21 -48
0 -27 -4 -57 -9 -68 l-9 -20 -1 20 c-1 19 -2 19 -9 1 -7 -18 -8 -18 -14 -3 -3
9 -2 17 3 17 6 0 10 12 10 26 0 14 5 34 10 44 9 18 6 20 -31 26 l-42 7 29 12
29 12 -30 1 c-173 3 -196 5 -205 21 -8 14 -9 13 -10 -4 0 -11 -5 -27 -11 -35
-7 -11 -8 -5 -3 23 4 23 2 37 -4 37 -6 0 -8 -9 -5 -19 4 -16 1 -19 -17 -14
-14 4 -18 8 -10 13 9 5 9 9 1 14 -6 4 -14 0 -17 -9z m156 -35 c-8 -5 -25 -10
-38 -10 -13 0 -21 -4 -18 -9 4 -5 -3 -7 -14 -4 -34 9 -22 22 23 26 23 2 47 4
52 5 6 1 3 -3 -5 -8z m-117 -20 c3 -11 1 -18 -4 -14 -5 3 -9 12 -9 20 0 20 7
17 13 -6z m200 13 c-7 -2 -21 -2 -30 0 -10 3 -4 5 12 5 17 0 24 -2 18 -5z m-3
-17 c0 -11 -19 -15 -25 -6 -3 5 1 10 9 10 9 0 16 -2 16 -4z m-63 -12 c-3 -3
-12 -4 -19 -1 -8 3 -5 6 6 6 11 1 17 -2 13 -5z m110 0 c-3 -3 -12 -4 -19 -1
-8 3 -5 6 6 6 11 1 17 -2 13 -5z m3 -76 c0 -4 -4 -8 -9 -8 -6 0 -12 4 -15 8
-3 5 1 9 9 9 8 0 15 -4 15 -9z"/>
<path d="M330 2127 c0 -41 3 -77 7 -80 3 -4 6 -29 6 -56 1 -39 4 -48 15 -43
10 3 13 1 8 -6 -4 -7 -2 -12 6 -12 9 0 9 -3 -2 -10 -10 -7 -11 -10 -2 -10 8 0
10 -8 6 -26 -5 -20 -4 -25 5 -19 8 5 11 23 8 51 -2 28 0 44 7 44 7 0 7 3 -1 8
-7 4 -12 16 -12 27 1 50 -15 131 -28 138 -10 6 -12 18 -8 38 4 18 3 29 -4 29
-7 0 -11 -28 -11 -73z"/>
<path d="M51 2174 c0 -11 3 -14 6 -6 3 7 2 16 -1 19 -3 4 -6 -2 -5 -13z"/>
<path d="M33 2110 c0 -25 2 -35 4 -22 2 12 2 32 0 45 -2 12 -4 2 -4 -23z"/>
<path d="M62 2125 c0 -16 2 -22 5 -12 2 9 2 23 0 30 -3 6 -5 -1 -5 -18z"/>
<path d="M3908 2093 c5 -83 9 -90 11 -20 0 37 -2 67 -7 67 -4 0 -6 -21 -4 -47z"/>
<path d="M3862 2075 c0 -16 2 -22 5 -12 2 9 2 23 0 30 -3 6 -5 -1 -5 -18z"/>
<path d="M190 2000 c0 -5 4 -10 9 -10 5 0 18 -3 28 -7 16 -6 16 -5 4 10 -15
19 -41 23 -41 7z"/>
<path d="M3795 1960 c-13 -5 -14 -9 -5 -9 8 0 24 4 35 9 13 5 14 9 5 9 -8 0
-24 -4 -35 -9z"/>
<path d="M405 1950 c-3 -5 -1 -10 4 -10 6 0 11 5 11 10 0 6 -2 10 -4 10 -3 0
-8 -4 -11 -10z"/>
<path d="M3590 1946 c0 -18 -42 -49 -50 -37 -3 5 -6 -18 -8 -52 -1 -34 -7 -64
-13 -68 -6 -4 -8 -21 -3 -44 5 -27 4 -36 -5 -31 -7 5 -11 -1 -11 -14 0 -12 -5
-31 -11 -42 -7 -14 -8 -23 -1 -27 6 -3 14 -19 18 -35 3 -15 9 -24 13 -19 3 4
37 9 75 10 76 3 79 4 71 26 -8 20 -119 34 -139 18 -11 -9 -15 -7 -19 11 -7 27
10 40 35 27 10 -6 23 -7 28 -4 5 3 11 1 15 -4 4 -7 15 -7 32 0 19 7 28 6 33
-2 5 -7 10 -8 14 -1 3 6 0 13 -6 15 -7 3 -3 6 9 6 13 1 21 -4 19 -11 -1 -7 -1
-10 1 -6 2 4 11 4 19 1 8 -3 14 -1 14 5 0 10 -74 32 -108 32 -11 0 -30 9 -43
21 -23 19 -23 20 -3 14 18 -5 21 -2 16 20 -4 24 -5 24 -18 8 -11 -14 -13 -15
-13 -3 0 8 6 24 14 34 8 11 15 25 15 30 0 6 -5 4 -11 -4 -7 -11 -8 -4 -3 25
12 72 21 85 54 85 19 0 29 4 25 10 -4 6 -16 8 -27 4 -14 -4 -18 -2 -14 5 4 6
2 11 -3 11 -6 0 -11 -6 -11 -14z m-30 -72 c-6 -14 -10 -38 -9 -52 0 -15 -4
-43 -8 -62 -7 -28 -10 -31 -16 -17 -4 10 -2 27 3 37 6 10 10 33 10 50 0 29 15
70 25 70 3 0 0 -12 -5 -26z"/>
<path d="M422 1910 c0 -14 2 -19 5 -12 2 6 2 18 0 25 -3 6 -5 1 -5 -13z"/>
<path d="M3730 1635 c0 -16 6 -25 16 -25 9 0 18 -9 21 -20 4 -14 14 -20 34
-20 21 0 29 -5 29 -18 0 -10 -3 -22 -7 -26 -4 -3 -8 -13 -9 -21 -3 -19 23 -8
30 13 3 9 9 23 12 31 5 10 3 11 -7 5 -12 -6 -12 -5 -1 8 9 11 10 18 2 23 -6 3
-8 10 -5 15 3 4 -4 6 -15 3 -11 -3 -23 -9 -26 -14 -3 -5 -10 -9 -15 -9 -16 0
1 21 25 30 21 9 21 9 -2 9 -13 1 -21 5 -18 10 6 9 -15 21 -46 27 -13 3 -18 -3
-18 -21z m45 -5 c-3 -4 1 -10 7 -13 7 -2 10 -8 6 -12 -10 -11 -18 -3 -23 24
-2 12 0 19 6 16 5 -4 7 -10 4 -15z m70 -50 c3 -6 -1 -7 -9 -4 -18 7 -21 14 -7
14 6 0 13 -4 16 -10z"/>
<path d="M3474 1595 c3 -11 -1 -33 -9 -48 -13 -25 -12 -30 7 -53 18 -20 28
-23 53 -19 20 4 25 3 17 -3 -11 -7 -10 -10 3 -16 26 -10 42 -7 25 5 -12 8 -11
9 5 6 11 -2 19 -9 18 -15 -2 -7 1 -12 7 -12 6 0 10 5 10 10 0 6 8 10 18 10 15
1 15 2 -3 13 -11 6 -44 12 -73 13 -28 0 -52 3 -52 5 2 23 14 48 19 40 4 -6 22
-11 40 -13 18 -1 35 -6 37 -10 3 -4 17 -8 32 -8 44 0 76 -11 60 -21 -9 -6 -3
-9 17 -9 17 0 37 -5 45 -10 13 -8 12 -11 -5 -25 -19 -14 -18 -15 17 -13 34 2
37 4 32 28 l-5 25 14 -24 c14 -24 15 -24 26 -3 14 26 14 32 0 32 -5 0 -8 -4
-4 -9 3 -5 1 -12 -4 -15 -5 -3 -11 3 -14 14 -4 14 -11 18 -24 14 -13 -4 -14
-3 -5 4 10 7 11 14 4 28 -6 11 -13 27 -16 37 -3 9 -15 17 -27 17 -12 0 -28 8
-35 17 -18 25 -30 8 -16 -22 7 -15 8 -25 2 -25 -6 0 -10 6 -10 14 0 10 -11 11
-52 5 -71 -11 -109 -4 -137 28 -18 21 -22 23 -17 8z m26 -51 c0 -8 -4 -14 -10
-14 -5 0 -10 9 -10 21 0 11 5 17 10 14 6 -3 10 -13 10 -21z m110 -74 c0 -5 -2
-10 -4 -10 -3 0 -8 5 -11 10 -3 6 -1 10 4 10 6 0 11 -4 11 -10z m167 -32 c-3
-8 -6 -5 -6 6 -1 11 2 17 5 13 3 -3 4 -12 1 -19z"/>
<path d="M80 1528 c0 -8 7 -21 15 -28 19 -16 19 -1 0 24 -12 16 -15 17 -15 4z"/>
<path d="M3638 1483 c7 -3 16 -2 19 1 4 3 -2 6 -13 5 -11 0 -14 -3 -6 -6z"/>
<path d="M450 1461 c0 -6 5 -13 10 -16 6 -3 10 1 10 9 0 9 -4 16 -10 16 -5 0
-10 -4 -10 -9z"/>
<path d="M3666 1455 c18 -15 17 -16 -16 -10 -30 4 -32 4 -12 -5 15 -6 36 -7
55 -1 24 7 27 9 10 10 -12 1 -25 6 -28 11 -3 6 -11 10 -18 10 -6 0 -2 -7 9
-15z"/>
<path d="M3486 1436 c-11 -18 -13 -27 -4 -32 7 -4 8 -3 4 4 -4 7 -3 12 1 12 5
0 14 9 21 20 18 29 -3 25 -22 -4z"/>
<path d="M586 1296 c3 -9 3 -24 -1 -33 -11 -25 -6 -64 10 -80 21 -21 28 -15
11 9 -17 24 -23 79 -7 63 5 -6 11 -19 14 -30 4 -18 5 -18 6 2 0 12 -3 25 -9
28 -5 3 -10 15 -10 25 0 10 -4 22 -10 25 -6 3 -7 -1 -4 -9z"/>
<path d="M315 1220 c-3 -6 1 -7 9 -4 18 7 21 14 7 14 -6 0 -13 -4 -16 -10z"/>
<path d="M280 1190 c-8 -5 -10 -10 -5 -10 6 0 17 5 25 10 8 5 11 10 5 10 -5 0
-17 -5 -25 -10z"/>
<path d="M3205 1055 c-3 -8 -7 -21 -9 -29 -3 -10 2 -14 15 -13 22 1 24 8 7 25
-9 9 -9 12 0 12 6 0 16 -8 21 -17 14 -24 14 -7 1 18 -13 23 -29 25 -35 4z"/>
<path d="M290 1044 c-14 -16 -13 -17 3 -11 9 3 17 2 17 -3 0 -6 -5 -10 -12
-10 -6 0 -9 -2 -6 -5 7 -7 58 18 58 29 0 4 -9 6 -20 3 -10 -3 -21 0 -22 5 -2
6 -10 2 -18 -8z"/>
<path d="M770 1012 c0 -6 -8 -13 -18 -16 -10 -4 -19 -13 -19 -20 0 -8 6 -12
14 -9 21 8 6 -68 -17 -88 -16 -14 -19 -27 -16 -73 4 -60 3 -64 -20 -41 -14 13
-14 15 1 15 13 0 14 2 3 14 -7 8 -17 12 -21 9 -14 -9 5 -87 24 -101 11 -7 18
-21 18 -30 -1 -15 -2 -15 -6 1 -2 9 -11 17 -19 17 -20 0 -17 -50 5 -77 20 -24
37 -31 25 -10 -5 8 -3 8 9 -2 9 -7 14 -17 11 -22 -3 -5 2 -6 11 -3 11 5 13 10
5 19 -8 9 -8 15 0 20 5 3 10 39 10 81 0 57 3 74 14 74 8 0 16 7 20 15 7 19 26
20 26 1 0 -7 -10 -16 -22 -19 -27 -8 -18 -19 19 -23 37 -4 58 10 74 48 7 18
20 40 27 48 13 12 12 16 -9 29 -13 9 -37 29 -53 46 -33 34 -66 42 -66 14 0
-24 20 -35 31 -18 8 12 11 12 19 -1 5 -8 10 -19 10 -25 0 -5 -4 -3 -10 5 -11
18 -25 7 -17 -15 7 -16 37 -21 37 -6 0 12 27 8 42 -7 8 -8 5 -9 -12 -5 -21 5
-22 3 -16 -28 3 -19 3 -28 0 -21 -3 6 -12 12 -19 12 -8 0 -17 9 -20 20 -3 11
-11 20 -16 20 -5 0 -9 7 -9 15 0 25 -20 17 -32 -12 -14 -35 -15 -38 -17 -65
-2 -16 -7 -10 -16 22 -14 45 -11 67 5 40 12 -19 17 -12 25 35 6 39 6 39 -9 15
-8 -14 -15 -20 -16 -15 0 6 8 21 17 34 9 14 11 21 5 17 -7 -4 -12 -1 -12 9 0
12 6 14 28 9 15 -4 23 -3 19 2 -5 5 -13 10 -18 10 -22 3 -23 5 -11 13 10 6 10
10 -3 21 -9 7 -15 8 -15 2z m4 -27 c-4 -8 -11 -12 -16 -9 -6 4 -5 10 3 15 19
12 19 11 13 -6z m66 -49 c0 -2 -7 -7 -16 -10 -8 -3 -12 -2 -9 4 6 10 25 14 25
6z"/>
<path d="M3164 1014 c-7 -3 -10 -13 -7 -23 2 -9 -3 -23 -11 -30 -9 -8 -16 -10
-16 -6 0 5 -9 0 -20 -10 -11 -10 -17 -22 -13 -28 3 -5 2 -7 -4 -4 -5 4 -22 -7
-38 -23 l-28 -29 31 4 c17 2 34 0 37 -6 4 -5 12 -9 18 -9 7 0 6 4 -3 10 -11 7
-12 10 -2 10 10 0 12 10 9 35 -3 23 -1 33 6 28 6 -4 7 -1 2 8 -8 12 -6 12 8 0
12 -9 17 -10 17 -2 0 7 5 9 10 6 12 -8 60 34 60 52 0 7 -7 10 -16 6 -9 -3 -11
-9 -6 -12 5 -3 -1 -14 -14 -24 -13 -10 -24 -13 -24 -8 0 5 4 12 9 16 6 3 9 14
8 25 -1 11 -1 20 -2 19 0 0 -5 -3 -11 -5z m-84 -128 c0 -2 -7 -7 -16 -10 -8
-3 -12 -2 -9 4 6 10 25 14 25 6z"/>
<path d="M378 983 c7 -3 16 -2 19 1 4 3 -2 6 -13 5 -11 0 -14 -3 -6 -6z"/>
<path d="M3124 919 c-3 -5 0 -9 6 -9 6 0 9 -4 5 -9 -3 -5 3 -12 14 -16 11 -3
22 -13 26 -23 5 -14 4 -15 -6 -4 -15 14 -53 17 -44 3 7 -12 -26 -45 -34 -33
-3 5 -17 12 -31 16 -14 3 -19 3 -12 0 19 -9 14 -32 -10 -45 -17 -9 -20 -9 -16
2 3 8 0 19 -7 26 -10 9 -18 8 -35 -7 l-23 -20 24 -9 c13 -5 18 -10 11 -10 -7
-1 -10 -5 -7 -11 3 -5 -1 -10 -9 -10 -8 0 -19 -7 -24 -16 -5 -9 -12 -15 -15
-15 -23 3 -37 0 -37 -8 0 -6 12 -9 28 -8 20 1 27 -2 26 -15 -1 -10 4 -14 11
-11 8 2 24 -1 36 -8 17 -9 24 -9 27 -1 2 8 9 6 20 -5 16 -16 17 -13 20 35 3
57 22 72 22 18 0 -22 6 -36 16 -40 13 -5 15 1 13 41 -3 53 8 103 22 103 5 0 9
-4 9 -10 0 -5 6 -10 14 -10 18 0 28 38 15 62 -6 11 -8 26 -5 34 3 8 2 14 -2
15 -4 0 -15 2 -24 4 -10 2 -20 -1 -24 -6z m-119 -109 c-3 -5 -11 -10 -16 -10
-6 0 -7 5 -4 10 3 6 11 10 16 10 6 0 7 -4 4 -10z m65 -29 c0 -14 -18 -23 -31
-15 -8 4 -7 9 2 15 18 11 29 11 29 0z"/>
<path d="M670 825 c-13 -14 -18 -25 -12 -25 6 0 13 4 17 10 3 5 12 7 20 3 8
-3 15 0 15 7 0 6 -5 8 -12 4 -8 -5 -9 -2 -5 9 9 23 5 21 -23 -8z"/>
<path d="M920 810 c0 -5 7 -10 15 -10 8 0 15 5 15 10 0 6 -7 10 -15 10 -8 0
-15 -4 -15 -10z"/>
<path d="M964 809 c-3 -6 -2 -15 3 -20 5 -5 9 -1 9 11 0 23 -2 24 -12 9z"/>
<path d="M3168 780 c-25 -23 -28 -33 -28 -89 0 -43 5 -67 16 -78 8 -9 13 -21
10 -28 -3 -8 2 -11 14 -8 11 3 22 14 26 25 4 15 8 17 14 8 4 -7 13 -9 19 -6
14 9 10 -16 -4 -26 -6 -5 -5 -11 4 -17 8 -5 9 -11 3 -15 -11 -7 -25 21 -17 34
3 5 1 11 -5 15 -11 7 -25 -39 -16 -54 13 -20 58 2 49 24 -3 8 0 15 7 15 6 0 9
4 6 9 -3 4 6 7 19 5 14 -1 28 3 32 8 3 6 2 9 -3 6 -5 -3 -24 19 -41 49 -18 30
-26 50 -19 44 9 -7 17 -8 20 -3 3 6 -2 12 -12 15 -9 2 -25 8 -34 12 -11 4 -18
3 -18 -5 0 -6 4 -9 8 -6 5 3 9 -1 9 -8 0 -22 -23 -14 -25 10 -2 23 30 44 36
25 6 -17 21 -13 18 4 -1 9 -13 23 -27 32 -13 9 -26 19 -29 23 -3 3 -17 -6 -32
-20z m58 -18 c-15 -14 -36 -9 -36 9 0 17 3 18 21 9 11 -7 18 -14 15 -18z"/>
<path d="M2922 778 c-7 -7 -12 -16 -12 -20 0 -13 31 -9 46 7 9 8 11 15 5 15
-5 0 -13 -4 -16 -10 -3 -5 -11 -10 -17 -10 -7 0 -6 6 2 15 15 18 9 20 -8 3z"/>
<path d="M612 748 c-7 -19 -8 -36 -3 -41 5 -5 8 -2 8 9 -1 11 4 18 11 17 13
-3 16 15 4 34 -5 8 -12 2 -20 -19z"/>
<path d="M625 698 c4 -33 15 -51 15 -25 0 10 7 17 16 17 22 0 13 21 -13 31
-20 7 -22 5 -18 -23z"/>
<path d="M583 688 c1 -11 14 -30 29 -41 16 -12 28 -25 28 -30 0 -5 -8 -3 -17
4 -10 7 -7 1 6 -14 25 -28 43 -38 21 -12 -15 18 1 20 18 3 9 -9 15 -9 25 1 10
11 9 13 -1 7 -7 -5 -16 2 -22 19 -5 14 -16 25 -22 24 -26 -3 -39 1 -37 14 3
24 -1 35 -15 40 -10 4 -14 -1 -13 -15z"/>
<path d="M802 670 c-1 -16 2 -30 8 -30 5 0 10 7 10 16 0 8 5 12 10 9 6 -3 18
1 27 11 16 16 16 16 -4 10 -12 -4 -24 -2 -28 4 -11 18 -21 11 -23 -20z"/>
<path d="M3280 680 c0 -6 5 -8 12 -4 8 5 9 2 5 -10 -4 -11 -3 -15 4 -10 8 4 9
-1 4 -16 -6 -20 -5 -21 8 -9 13 12 13 17 3 33 -15 23 -36 33 -36 16z"/>
<path d="M2985 665 c62 -45 133 -108 113 -102 -25 9 -22 0 3 -14 17 -8 20 -8
14 1 -5 9 -1 10 14 5 14 -4 21 -2 21 7 0 21 -21 38 -47 38 -12 0 -26 6 -30 13
-4 8 -16 16 -25 20 -12 4 -16 13 -12 24 4 12 3 14 -3 6 -7 -10 -13 -10 -29 2
-10 8 -23 14 -29 14 -5 0 -1 -6 10 -14z"/>
<path d="M3084 656 c-6 -16 11 -46 27 -46 13 0 10 23 -6 44 -13 17 -15 18 -21
2z"/>
<path d="M760 606 c0 -2 7 -7 16 -10 8 -3 12 -2 9 4 -6 10 -25 14 -25 6z"/>
<path d="M1084 572 c2 -21 21 -19 23 3 l3 20 -9 -20 c-6 -16 -9 -17 -13 -5 -3
8 -4 9 -4 2z"/>
<path d="M1316 542 c6 -4 11 -16 11 -27 0 -11 1 -33 2 -50 l3 -30 9 33 c8 26
14 32 29 27 10 -3 22 0 26 6 5 9 -3 11 -31 6 -29 -5 -35 -3 -27 5 13 13 -2 38
-22 38 -8 0 -8 -2 0 -8z"/>
<path d="M1280 529 c0 -5 5 -7 10 -4 6 3 10 8 10 11 0 2 -4 4 -10 4 -5 0 -10
-5 -10 -11z"/>
<path d="M3165 530 c-4 -6 -16 -8 -28 -4 -26 8 -21 1 12 -16 19 -10 22 -10 16
1 -6 9 -3 11 8 6 11 -4 14 -2 10 9 -6 17 -10 17 -18 4z"/>
<path d="M2526 512 c-2 -4 4 -19 15 -32 10 -14 19 -20 19 -13 0 6 -5 15 -11
18 -6 4 -8 13 -5 21 6 15 -9 20 -18 6z"/>
<path d="M2758 493 c-24 -6 -23 -20 2 -33 26 -14 28 -84 4 -98 -12 -7 -15 -19
-12 -46 2 -21 0 -35 -7 -35 -16 3 -75 -22 -75 -31 0 -4 7 -10 14 -13 10 -4 13
-1 9 9 -3 7 0 14 6 14 6 0 11 -7 11 -15 0 -9 6 -12 17 -8 11 4 14 3 9 -5 -5
-8 -2 -10 8 -6 19 7 11 24 -10 24 -9 0 -14 6 -12 12 5 15 32 17 65 6 26 -9 56
0 47 13 -3 5 -1 9 5 9 7 0 7 8 2 23 -31 76 -34 93 -20 119 7 13 7 18 1 14 -12
-7 -44 33 -36 46 5 8 0 9 -28 1z m66 -165 c7 -36 9 -33 -29 -42 -22 -5 -26 -4
-15 4 8 5 12 10 8 10 -10 0 12 60 22 60 4 0 10 -14 14 -32z"/>
<path d="M2801 314 c0 -11 3 -14 6 -6 3 7 2 16 -1 19 -3 4 -6 -2 -5 -13z"/>
<path d="M1355 480 c-3 -5 -1 -10 4 -10 6 0 11 5 11 10 0 6 -2 10 -4 10 -3 0
-8 -4 -11 -10z"/>
<path d="M2420 460 c8 -5 20 -10 25 -10 6 0 3 5 -5 10 -8 5 -19 10 -25 10 -5
0 -3 -5 5 -10z"/>
<path d="M1048 443 c7 -3 16 -2 19 1 4 3 -2 6 -13 5 -11 0 -14 -3 -6 -6z"/>
<path d="M1546 435 c4 -8 8 -15 11 -15 2 0 11 7 19 15 14 13 13 15 -10 15 -18
0 -24 -4 -20 -15z"/>
<path d="M1011 384 c0 -11 3 -14 6 -6 3 7 2 16 -1 19 -3 4 -6 -2 -5 -13z"/>
<path d="M1543 335 c0 -27 2 -38 4 -22 2 15 2 37 0 50 -2 12 -4 0 -4 -28z"/>
<path d="M2837 363 c3 -7 6 -13 8 -13 2 0 5 6 8 13 3 8 -1 14 -8 14 -7 0 -11
-6 -8 -14z"/>
<path d="M2620 361 c0 -6 -6 -8 -14 -5 -9 3 -13 -3 -12 -22 1 -15 8 -29 16
-32 12 -4 13 -2 2 9 -10 11 -9 16 9 30 15 11 18 18 10 23 -6 4 -11 3 -11 -3z"/>
<path d="M2658 363 c7 -3 16 -2 19 1 4 3 -2 6 -13 5 -11 0 -14 -3 -6 -6z"/>
<path d="M2630 334 c-9 -10 -9 -14 -1 -14 8 0 9 -5 2 -18 -7 -14 -5 -26 10
-48 10 -16 19 -24 19 -19 0 6 -5 16 -12 23 -6 6 -8 15 -4 19 4 4 10 2 14 -4 5
-8 14 -7 32 3 l25 14 -26 -4 c-14 -2 -32 0 -40 5 -10 6 -8 9 10 9 18 0 21 3
12 13 -6 8 -8 16 -5 19 2 3 -2 8 -10 11 -8 3 -20 -1 -26 -9z"/>
<path d="M1831 314 c0 -11 3 -14 6 -6 3 7 2 16 -1 19 -3 4 -6 -2 -5 -13z"/>
<path d="M1215 300 c-3 -6 1 -7 9 -4 18 7 21 14 7 14 -6 0 -13 -4 -16 -10z"/>
<path d="M1542 250 c0 -19 2 -27 5 -17 2 9 2 25 0 35 -3 9 -5 1 -5 -18z"/>
<path d="M1761 254 c0 -11 3 -14 6 -6 3 7 2 16 -1 19 -3 4 -6 -2 -5 -13z"/>
<path d="M2765 250 c3 -5 8 -10 11 -10 2 0 4 5 4 10 0 6 -5 10 -11 10 -5 0 -7
-4 -4 -10z"/>
<path d="M1795 220 c-3 -5 -3 -10 0 -10 4 0 -1 -7 -9 -16 -19 -18 -20 -30 -4
-40 7 -4 8 -3 4 5 -4 6 0 18 8 27 9 8 16 22 16 30 0 16 -6 18 -15 4z"/>
<path d="M2332 180 c0 -14 2 -19 5 -12 2 6 2 18 0 25 -3 6 -5 1 -5 -13z"/>
<path d="M2168 103 c7 -3 16 -2 19 1 4 3 -2 6 -13 5 -11 0 -14 -3 -6 -6z"/>
</g>
</svg>
